<?xml version="1.0" encoding="UTF-8" standalone="no"?>
<!-- Generator: Adobe Illustrator 16.0.4, SVG Export Plug-In . SVG Version: 6.00 Build 0)  -->

<svg
   xmlns:dc="http://purl.org/dc/elements/1.1/"
   xmlns:cc="http://creativecommons.org/ns#"
   xmlns:rdf="http://www.w3.org/1999/02/22-rdf-syntax-ns#"
   xmlns:svg="http://www.w3.org/2000/svg"
   xmlns="http://www.w3.org/2000/svg"
   xmlns:sodipodi="http://sodipodi.sourceforge.net/DTD/sodipodi-0.dtd"
   xmlns:inkscape="http://www.inkscape.org/namespaces/inkscape"
   version="1.1"
   id="Calque_1"
   x="0px"
   y="0px"
   width="157.123"
   height="54.452"
   viewBox="0 0 157.123 54.452"
   enable-background="new 0 0 250 66"
   xml:space="preserve"
   inkscape:version="0.91 r13725"
   sodipodi:docname="L'Express.svg"
   inkscape:export-filename="/home/guillaumecabanel/code/guillaumecabanel/products/hedgenews/app/assets/images/logo/logos_custom/l_express-logo-white.png"
   inkscape:export-xdpi="422.10001"
   inkscape:export-ydpi="422.10001"><metadata
     id="metadata29"><rdf:RDF><cc:Work
         rdf:about=""><dc:format>image/svg+xml</dc:format><dc:type
           rdf:resource="http://purl.org/dc/dcmitype/StillImage" /><dc:title /></cc:Work></rdf:RDF></metadata><defs
     id="defs27"><filter
       inkscape:collect="always"
       style="color-interpolation-filters:sRGB"
       id="filter4243"
       x="-0.0079236781"
       width="1.0158474"
       y="-0.02471415"
       height="1.0494283"><feGaussianBlur
         inkscape:collect="always"
         stdDeviation="0.4989375"
         id="feGaussianBlur4245" /></filter></defs><sodipodi:namedview
     pagecolor="#ffffff"
     bordercolor="#666666"
     borderopacity="1"
     objecttolerance="10"
     gridtolerance="10"
     guidetolerance="10"
     inkscape:pageopacity="0"
     inkscape:pageshadow="2"
     inkscape:window-width="1920"
     inkscape:window-height="1026"
     id="namedview25"
     showgrid="false"
     fit-margin-bottom="3"
     fit-margin-left="3"
     fit-margin-top="3"
     fit-margin-right="3"
     inkscape:zoom="3.9711117"
     inkscape:cx="24.358504"
     inkscape:cy="32.389071"
     inkscape:window-x="0"
     inkscape:window-y="0"
     inkscape:window-maximized="1"
     inkscape:current-layer="Calque_1" /><g
     id="g3"
     transform="translate(-45.066002,-6.833)"
     style="fill:#333333;fill-opacity:1;filter:url(#filter4243)"
     inkscape:export-filename="/home/guillaumecabanel/code/guillaumecabanel/products/hedgenews/app/assets/images/logo/logos_custom/l_express-logo-black.png"
     inkscape:export-xdpi="428.78979"
     inkscape:export-ydpi="428.78979"><g
       id="g5"
       style="fill:#333333;fill-opacity:1"><polygon
         points="57.019,9.833 57.019,26.514 69.429,9.833 "
         id="polygon7"
         style="fill:#333333;fill-opacity:1" /><path
         d="m 82.193,35.264 0,-8.834 c 0,-6.417 -4.059,-10.069 -10.068,-10.069 l -0.234,0 c -6.006,0 -10.07,3.652 -10.07,10.069 l 0,14.309 c 0,6.417 4.181,10.067 10.13,10.067 l 0.234,0 c 6.063,0 10.008,-3.531 10.008,-10.129 l 0,-2.59 -7.18,0 0,2.65 c 0,2.531 -1.12,3.589 -2.65,3.589 l -0.178,0 c -1.59,0 -2.884,-1.058 -2.884,-3.589 l 0,-5.475 12.892,0 0,0.002 z M 69.302,26.373 c 0,-2.594 1.236,-3.596 2.764,-3.596 l 0.237,0 c 1.474,0 2.71,1.002 2.71,3.536 l 0,3.828 -5.711,0 0,-3.768 z"
         id="path9"
         inkscape:connector-curvature="0"
         style="fill:#333333;fill-opacity:1" /><polygon
         points="95.442,50.335 103.276,50.335 97.387,32.67 102.861,16.833 95.267,16.833 93.5,22.837 91.972,28.372 90.438,22.837 88.671,16.833 80.782,16.833 86.377,32.553 80.488,50.335 88.319,50.335 91.852,37.383 93.796,44.509 "
         id="polygon11"
         style="fill:#333333;fill-opacity:1" /><path
         d="m 115.756,16.833 -12.246,0 0,41.452 7.537,0 0,-7.95 4.709,0 c 5.889,0 8.362,-3.944 8.362,-10.305 l 0,-12.954 c 0,-6.358 -2.472,-10.243 -8.362,-10.243 z m 0.883,23.435 c 0,2.711 -0.763,3.944 -2.707,3.944 l -2.885,0 0,-21.255 2.885,0 c 1.944,0 2.707,1.237 2.707,3.884 l 0,13.427 z"
         id="path13"
         inkscape:connector-curvature="0"
         style="fill:#333333;fill-opacity:1" /><path
         d="m 193.245,31.199 -4.886,-2.533 c -1.238,-0.648 -1.887,-1.354 -1.887,-2.708 l 0,-0.528 c 0,-1.945 1.002,-2.948 2.473,-2.948 l 0.234,0 c 1.471,0 2.59,1.123 2.59,3.476 l 0,1.825 7.127,0 0,-1.945 c 0,-6.18 -4.006,-9.479 -9.775,-9.479 l -0.294,0 c -5.71,0 -9.655,3.298 -9.655,9.304 l 0,0.589 c 0,5.063 2.178,6.891 6.004,8.891 l 4.771,2.475 c 1.354,0.707 1.942,1.529 1.942,3.061 l 0,1.062 c 0,1.999 -1.238,3.003 -2.647,3.003 l -0.181,0 c -1.471,0 -2.707,-1.062 -2.707,-3.183 l 0,-2.53 -7.121,0 0,2.297 c 0,6.184 4.061,9.479 9.947,9.479 l 0.237,0 c 5.771,0 9.772,-3.296 9.772,-9.363 l 0,-1.176 c 0,-5.36 -2.061,-7.067 -5.944,-9.069 z"
         id="path15"
         inkscape:connector-curvature="0"
         style="fill:#333333;fill-opacity:1" /><path
         d="m 172.93,31.199 -4.887,-2.533 c -1.236,-0.648 -1.884,-1.354 -1.884,-2.708 l 0,-0.528 c 0,-1.945 0.999,-2.948 2.473,-2.948 l 0.234,0 c 1.471,0 2.594,1.123 2.594,3.476 l 0,1.825 7.122,0 0,-1.945 c 0,-6.18 -4.004,-9.479 -9.775,-9.479 l -0.295,0 c -5.708,0 -9.652,3.298 -9.652,9.304 l 0,0.589 c 0,5.064 2.176,6.892 6.002,8.891 l 4.771,2.475 c 1.354,0.707 1.942,1.529 1.942,3.061 l 0,1.062 c 0,1.999 -1.236,3.003 -2.646,3.003 l -0.18,0 c -1.471,0 -2.707,-1.062 -2.707,-3.183 l 0,-2.53 -7.125,0 0,2.297 c 0,6.184 4.061,9.479 9.95,9.479 l 0.233,0 c 5.771,0 9.775,-3.296 9.775,-9.363 l 0,-1.176 c 0.001,-5.36 -2.063,-7.067 -5.945,-9.069 z"
         id="path17"
         inkscape:connector-curvature="0"
         style="fill:#333333;fill-opacity:1" /><path
         d="m 158.327,35.264 0,-8.834 c 0,-6.417 -4.062,-10.069 -10.07,-10.069 l -0.233,0 c -6.004,0 -10.065,3.652 -10.065,10.069 l 0,14.309 c 0,6.417 4.177,10.067 10.125,10.067 l 0.235,0 c 6.062,0 10.01,-3.531 10.01,-10.129 l 0,-2.59 -7.182,0 0,2.65 c 0,2.531 -1.121,3.589 -2.651,3.589 l -0.177,0 c -1.592,0 -2.887,-1.058 -2.887,-3.589 l 0,-5.475 12.895,0 0,0.002 z m -12.895,-8.891 c 0,-2.594 1.237,-3.596 2.769,-3.596 l 0.239,0 c 1.469,0 2.707,1.002 2.707,3.536 l 0,3.828 -5.715,0 0,-3.768 z"
         id="path19"
         inkscape:connector-curvature="0"
         style="fill:#333333;fill-opacity:1" /><path
         d="m 138.189,16.833 -4.653,0 c -6,0 -8.475,3.53 -8.475,9.714 l 0,23.788 7.534,0 0,-23.14 c 0,-2.707 0.94,-4.064 3.121,-4.064 l 2.474,0 0,-6.298 -0.001,0 z"
         id="path21"
         inkscape:connector-curvature="0"
         style="fill:#333333;fill-opacity:1" /><rect
         x="48.066002"
         y="9.8330002"
         width="7.809"
         height="40.500999"
         id="rect23"
         style="fill:#333333;fill-opacity:1" /></g></g><g
     inkscape:export-ydpi="428.78979"
     inkscape:export-xdpi="428.78979"
     inkscape:export-filename="/home/guillaumecabanel/code/guillaumecabanel/products/hedgenews/app/assets/images/logo/logos_custom/l_express-logo-black.png"
     style="fill:#fafafa;fill-opacity:1"
     transform="translate(-45.066002,-6.833)"
     id="g4213"><g
       style="fill:#fafafa;fill-opacity:1"
       id="g4215"><polygon
         style="fill:#fafafa;fill-opacity:1"
         id="polygon4217"
         points="57.019,9.833 57.019,26.514 69.429,9.833 " /><path
         style="fill:#fafafa;fill-opacity:1"
         inkscape:connector-curvature="0"
         id="path4219"
         d="m 82.193,35.264 0,-8.834 c 0,-6.417 -4.059,-10.069 -10.068,-10.069 l -0.234,0 c -6.006,0 -10.07,3.652 -10.07,10.069 l 0,14.309 c 0,6.417 4.181,10.067 10.13,10.067 l 0.234,0 c 6.063,0 10.008,-3.531 10.008,-10.129 l 0,-2.59 -7.18,0 0,2.65 c 0,2.531 -1.12,3.589 -2.65,3.589 l -0.178,0 c -1.59,0 -2.884,-1.058 -2.884,-3.589 l 0,-5.475 12.892,0 0,0.002 z M 69.302,26.373 c 0,-2.594 1.236,-3.596 2.764,-3.596 l 0.237,0 c 1.474,0 2.71,1.002 2.71,3.536 l 0,3.828 -5.711,0 0,-3.768 z" /><polygon
         style="fill:#fafafa;fill-opacity:1"
         id="polygon4221"
         points="95.442,50.335 103.276,50.335 97.387,32.67 102.861,16.833 95.267,16.833 93.5,22.837 91.972,28.372 90.438,22.837 88.671,16.833 80.782,16.833 86.377,32.553 80.488,50.335 88.319,50.335 91.852,37.383 93.796,44.509 " /><path
         style="fill:#fafafa;fill-opacity:1"
         inkscape:connector-curvature="0"
         id="path4223"
         d="m 115.756,16.833 -12.246,0 0,41.452 7.537,0 0,-7.95 4.709,0 c 5.889,0 8.362,-3.944 8.362,-10.305 l 0,-12.954 c 0,-6.358 -2.472,-10.243 -8.362,-10.243 z m 0.883,23.435 c 0,2.711 -0.763,3.944 -2.707,3.944 l -2.885,0 0,-21.255 2.885,0 c 1.944,0 2.707,1.237 2.707,3.884 l 0,13.427 z" /><path
         style="fill:#fafafa;fill-opacity:1"
         inkscape:connector-curvature="0"
         id="path4225"
         d="m 193.245,31.199 -4.886,-2.533 c -1.238,-0.648 -1.887,-1.354 -1.887,-2.708 l 0,-0.528 c 0,-1.945 1.002,-2.948 2.473,-2.948 l 0.234,0 c 1.471,0 2.59,1.123 2.59,3.476 l 0,1.825 7.127,0 0,-1.945 c 0,-6.18 -4.006,-9.479 -9.775,-9.479 l -0.294,0 c -5.71,0 -9.655,3.298 -9.655,9.304 l 0,0.589 c 0,5.063 2.178,6.891 6.004,8.891 l 4.771,2.475 c 1.354,0.707 1.942,1.529 1.942,3.061 l 0,1.062 c 0,1.999 -1.238,3.003 -2.647,3.003 l -0.181,0 c -1.471,0 -2.707,-1.062 -2.707,-3.183 l 0,-2.53 -7.121,0 0,2.297 c 0,6.184 4.061,9.479 9.947,9.479 l 0.237,0 c 5.771,0 9.772,-3.296 9.772,-9.363 l 0,-1.176 c 0,-5.36 -2.061,-7.067 -5.944,-9.069 z" /><path
         style="fill:#fafafa;fill-opacity:1"
         inkscape:connector-curvature="0"
         id="path4227"
         d="m 172.93,31.199 -4.887,-2.533 c -1.236,-0.648 -1.884,-1.354 -1.884,-2.708 l 0,-0.528 c 0,-1.945 0.999,-2.948 2.473,-2.948 l 0.234,0 c 1.471,0 2.594,1.123 2.594,3.476 l 0,1.825 7.122,0 0,-1.945 c 0,-6.18 -4.004,-9.479 -9.775,-9.479 l -0.295,0 c -5.708,0 -9.652,3.298 -9.652,9.304 l 0,0.589 c 0,5.064 2.176,6.892 6.002,8.891 l 4.771,2.475 c 1.354,0.707 1.942,1.529 1.942,3.061 l 0,1.062 c 0,1.999 -1.236,3.003 -2.646,3.003 l -0.18,0 c -1.471,0 -2.707,-1.062 -2.707,-3.183 l 0,-2.53 -7.125,0 0,2.297 c 0,6.184 4.061,9.479 9.95,9.479 l 0.233,0 c 5.771,0 9.775,-3.296 9.775,-9.363 l 0,-1.176 c 0.001,-5.36 -2.063,-7.067 -5.945,-9.069 z" /><path
         style="fill:#fafafa;fill-opacity:1"
         inkscape:connector-curvature="0"
         id="path4229"
         d="m 158.327,35.264 0,-8.834 c 0,-6.417 -4.062,-10.069 -10.07,-10.069 l -0.233,0 c -6.004,0 -10.065,3.652 -10.065,10.069 l 0,14.309 c 0,6.417 4.177,10.067 10.125,10.067 l 0.235,0 c 6.062,0 10.01,-3.531 10.01,-10.129 l 0,-2.59 -7.182,0 0,2.65 c 0,2.531 -1.121,3.589 -2.651,3.589 l -0.177,0 c -1.592,0 -2.887,-1.058 -2.887,-3.589 l 0,-5.475 12.895,0 0,0.002 z m -12.895,-8.891 c 0,-2.594 1.237,-3.596 2.769,-3.596 l 0.239,0 c 1.469,0 2.707,1.002 2.707,3.536 l 0,3.828 -5.715,0 0,-3.768 z" /><path
         style="fill:#fafafa;fill-opacity:1"
         inkscape:connector-curvature="0"
         id="path4231"
         d="m 138.189,16.833 -4.653,0 c -6,0 -8.475,3.53 -8.475,9.714 l 0,23.788 7.534,0 0,-23.14 c 0,-2.707 0.94,-4.064 3.121,-4.064 l 2.474,0 0,-6.298 -0.001,0 z" /><rect
         style="fill:#fafafa;fill-opacity:1"
         id="rect4233"
         height="40.500999"
         width="7.809"
         y="9.8330002"
         x="48.066002" /></g></g></svg>