<?xml version="1.0" encoding="UTF-8" standalone="no"?>
<!-- Created with Inkscape (http://www.inkscape.org/) -->

<svg
   xmlns:dc="http://purl.org/dc/elements/1.1/"
   xmlns:cc="http://creativecommons.org/ns#"
   xmlns:rdf="http://www.w3.org/1999/02/22-rdf-syntax-ns#"
   xmlns:svg="http://www.w3.org/2000/svg"
   xmlns="http://www.w3.org/2000/svg"
   xmlns:sodipodi="http://sodipodi.sourceforge.net/DTD/sodipodi-0.dtd"
   xmlns:inkscape="http://www.inkscape.org/namespaces/inkscape"
   id="svg3336"
   version="1.1"
   inkscape:version="0.91 r13725"
   xml:space="preserve"
   width="219.685"
   height="52.231499"
   viewBox="0 0 219.685 52.231499"
   sodipodi:docname="Le_Point.svg"><metadata
     id="metadata3342"><rdf:RDF><cc:Work
         rdf:about=""><dc:format>image/svg+xml</dc:format><dc:type
           rdf:resource="http://purl.org/dc/dcmitype/StillImage" /><dc:title /></cc:Work></rdf:RDF></metadata><defs
     id="defs3340"><filter
       inkscape:collect="always"
       style="color-interpolation-filters:sRGB"
       id="filter4170"
       x="-0.0072605818"
       width="1.0145212"
       y="-0.034558243"
       height="1.0691165"><feGaussianBlur
         inkscape:collect="always"
         stdDeviation="4.45977"
         id="feGaussianBlur4172" /></filter></defs><sodipodi:namedview
     pagecolor="#ffffff"
     bordercolor="#666666"
     borderopacity="1"
     objecttolerance="10"
     gridtolerance="10"
     guidetolerance="10"
     inkscape:pageopacity="0"
     inkscape:pageshadow="2"
     inkscape:window-width="1920"
     inkscape:window-height="1026"
     id="namedview3338"
     showgrid="false"
     fit-margin-top="0"
     fit-margin-left="0"
     fit-margin-right="0"
     fit-margin-bottom="0"
     inkscape:zoom="3.4721649"
     inkscape:cx="61.555723"
     inkscape:cy="29.459263"
     inkscape:window-x="0"
     inkscape:window-y="0"
     inkscape:window-maximized="1"
     inkscape:current-layer="g3346" /><g
     id="g3344"
     inkscape:groupmode="layer"
     inkscape:label="ink_ext_XXXXXX"
     transform="matrix(1.25,0,0,-1.25,-10.954588,147.29687)"><g
       id="g3346"
       transform="scale(0.1,0.1)"><g
         id="g4142"
         style="fill:#333333;fill-opacity:1;filter:url(#filter4170)"><path
           inkscape:connector-curvature="0"
           id="path3352"
           style="fill:#333333;fill-opacity:1;fill-rule:evenodd;stroke:none"
           d="m 1706.93,882.527 c -1.96,-0.367 -5.73,-1.148 -5.81,-1.16 -5.38,-1.008 -10.62,-1.211 -15.83,-1.211 -18.05,0 -24.45,9.258 -24.45,35.383 l 0,82.465 45.84,0 0,47.556 -45.84,0 0,67.07 -67.7,-22.75 0,-44.32 -39.75,0 0,-23.69 34.04,0 0,-0.01 c 2.31,0 4.6,-2.28 4.62,-4.58 l 0,-106.663 c 0,-47.234 11.78,-78.695 74.19,-78.695 13.09,0 23.21,1.457 33.36,2.879 0,0 4.38,0.59 7.34,0.988 l 0,46.578 -0.01,0.16" /><path
           inkscape:connector-curvature="0"
           id="path3354"
           style="fill:#333333;fill-opacity:1;fill-rule:evenodd;stroke:none"
           d="m 1063.65,1050.37 c -66.384,0 -111.099,-43.96 -111.099,-109.382 0,-65.183 44.722,-108.98 111.099,-108.98 66.44,0 111.18,43.797 111.18,108.98 0,65.422 -44.74,109.382 -111.18,109.382 z m 0,-166.507 c -37.98,0 -41.77,44.121 -41.77,57.125 0,13.102 3.79,57.524 41.77,57.524 37.99,0 41.78,-44.422 41.78,-57.524 0,-13.004 -3.79,-57.125 -41.78,-57.125" /><path
           inkscape:connector-curvature="0"
           id="path3356"
           style="fill:#333333;fill-opacity:1;fill-rule:evenodd;stroke:none"
           d="m 1243.33,1063.14 c 21.6,0 39.17,17.57 39.17,39.17 0,21.6 -17.57,39.17 -39.17,39.17 -21.6,0 -39.17,-17.57 -39.17,-39.17 0,-21.6 17.57,-39.17 39.17,-39.17" /><path
           inkscape:connector-curvature="0"
           id="path3358"
           style="fill:#333333;fill-opacity:1;fill-rule:evenodd;stroke:none"
           d="m 1284.46,860.297 c -2.32,0 -4.63,2.305 -4.63,4.625 l 0,180.638 -94.68,-0.03 0,-23.65 20.6,0 0,0 c 2.3,0 4.6,-2.29 4.62,-4.6 l 0,-152.354 -0.01,-0.004 c 0,-2.32 -2.3,-4.625 -4.62,-4.625 l -20.59,0 0,-23.652 119.9,0 0,23.652 -20.59,0" /><path
           inkscape:connector-curvature="0"
           id="path3360"
           style="fill:#333333;fill-opacity:1;fill-rule:evenodd;stroke:none"
           d="m 1541.89,864.914 0,101.563 c 0,40.513 -19.08,83.803 -74.25,83.803 -28.98,0 -50.78,-11.6 -64.81,-34.5 l -1.93,-3.14 0,28.38 0,0 c 0,2.28 -2.24,4.47 -4.5,4.54 l -85.16,0.01 0,-23.69 20.6,0 0,0 c 2.25,0 4.5,-2.19 4.62,-4.4 l 0,-180.835 70.27,0 0.04,96.519 c 0,42.285 12.79,58.766 37.58,58.766 4.54,0.039 13.13,-1.129 19.58,-9.399 5.88,-7.558 8.74,-20.691 8.74,-40.14 l 0,-105.746 94.44,-0.004 0,23.656 -20.75,0 c -2.25,0.082 -4.47,2.344 -4.47,4.617" /><path
           inkscape:connector-curvature="0"
           id="path3362"
           style="fill:#333333;fill-opacity:1;fill-rule:evenodd;stroke:none"
           d="M 544.063,1050.11 C 478.559,1050.11 440,1001.73 440,941.133 c 0,-65.422 45.305,-109.375 112.855,-109.375 27.336,0 52.684,6.695 72.395,15.23 0,0 0.652,0.274 1.191,0.504 l 0,51.067 c -1.273,-0.735 -2.867,-1.571 -2.867,-1.571 -24.031,-12.789 -49.918,-15.484 -59.836,-15.484 -30.39,0 -50.277,14.512 -54.332,35.555 l -0.238,1.238 c 0,0 131.137,0 133.176,0 0,1.812 0,14.969 0,14.969 0,74.254 -38.063,116.844 -98.281,116.844 z m -35.95,-87.465 0.125,1.148 c 1.5,14.102 9.723,39.187 36.192,39.187 25.3,0 32.636,-20.23 34.265,-34.445 l -0.004,0.008 c 0.555,-3.633 -1.925,-5.941 -4.636,-5.898 l -65.942,0" /><path
           inkscape:connector-curvature="0"
           id="path3364"
           style="fill:#333333;fill-opacity:1;fill-rule:evenodd;stroke:none"
           d="m 829.367,1109.62 -106.308,-0.01 0,-23.65 20.589,0 0,0 c 2.321,0 4.618,-2.3 4.625,-4.62 l 0,-216.445 c -0.019,-2.313 -2.308,-4.598 -4.625,-4.598 l -20.589,0 0,-23.652 120.91,0 0,23.652 -20.594,0 c -2.32,0 -4.621,2.305 -4.621,4.625 l -0.008,0.004 0,65.781 23.547,0 c 63.437,0 102.164,37.746 102.164,88.853 0,53.84 -36.48,90.06 -115.09,90.06 z m 4.297,-126.62 -14.922,0 0,74.74 14.922,0 c 25.41,0 40.227,-13.85 40.227,-37.03 0,-24.011 -14.45,-37.71 -40.227,-37.71" /><path
           inkscape:connector-curvature="0"
           id="path3366"
           style="fill:#333333;fill-opacity:1;fill-rule:evenodd;stroke:none"
           d="m 409.996,896.109 -0.004,0 c 0,-2.296 -2.273,-4.578 -4.578,-4.578 l 0,-0.004 -76.781,-0.004 0,183.117 c 0,2.3 2.285,4.58 4.586,4.58 l 20.383,0 0,23.42 -120.848,0.01 0,-23.42 20.387,0 0,0 c 2.261,0 4.496,-2.2 4.574,-4.46 l 0,-210.247 c -0.078,-2.257 -2.313,-4.46 -4.574,-4.46 l 0,-0.004 -20.387,0 0,-23.414 200.66,0.007 0,79.844 -23.418,0 0,-20.387" /></g><g
         style="fill:#fafafa;fill-opacity:1"
         id="g4152"
         inkscape:export-filename="/home/guillaumecabanel/code/guillaumecabanel/products/hedgenews/app/assets/images/logo/logos_custom/le_point-logo-white.png"
         inkscape:export-xdpi="351.65167"
         inkscape:export-ydpi="351.65167"><path
           d="m 1706.93,882.527 c -1.96,-0.367 -5.73,-1.148 -5.81,-1.16 -5.38,-1.008 -10.62,-1.211 -15.83,-1.211 -18.05,0 -24.45,9.258 -24.45,35.383 l 0,82.465 45.84,0 0,47.556 -45.84,0 0,67.07 -67.7,-22.75 0,-44.32 -39.75,0 0,-23.69 34.04,0 0,-0.01 c 2.31,0 4.6,-2.28 4.62,-4.58 l 0,-106.663 c 0,-47.234 11.78,-78.695 74.19,-78.695 13.09,0 23.21,1.457 33.36,2.879 0,0 4.38,0.59 7.34,0.988 l 0,46.578 -0.01,0.16"
           style="fill:#fafafa;fill-opacity:1;fill-rule:evenodd;stroke:none"
           id="path4154"
           inkscape:connector-curvature="0" /><path
           d="m 1063.65,1050.37 c -66.384,0 -111.099,-43.96 -111.099,-109.382 0,-65.183 44.722,-108.98 111.099,-108.98 66.44,0 111.18,43.797 111.18,108.98 0,65.422 -44.74,109.382 -111.18,109.382 z m 0,-166.507 c -37.98,0 -41.77,44.121 -41.77,57.125 0,13.102 3.79,57.524 41.77,57.524 37.99,0 41.78,-44.422 41.78,-57.524 0,-13.004 -3.79,-57.125 -41.78,-57.125"
           style="fill:#fafafa;fill-opacity:1;fill-rule:evenodd;stroke:none"
           id="path4156"
           inkscape:connector-curvature="0" /><path
           d="m 1243.33,1063.14 c 21.6,0 39.17,17.57 39.17,39.17 0,21.6 -17.57,39.17 -39.17,39.17 -21.6,0 -39.17,-17.57 -39.17,-39.17 0,-21.6 17.57,-39.17 39.17,-39.17"
           style="fill:#fafafa;fill-opacity:1;fill-rule:evenodd;stroke:none"
           id="path4158"
           inkscape:connector-curvature="0" /><path
           d="m 1284.46,860.297 c -2.32,0 -4.63,2.305 -4.63,4.625 l 0,180.638 -94.68,-0.03 0,-23.65 20.6,0 0,0 c 2.3,0 4.6,-2.29 4.62,-4.6 l 0,-152.354 -0.01,-0.004 c 0,-2.32 -2.3,-4.625 -4.62,-4.625 l -20.59,0 0,-23.652 119.9,0 0,23.652 -20.59,0"
           style="fill:#fafafa;fill-opacity:1;fill-rule:evenodd;stroke:none"
           id="path4160"
           inkscape:connector-curvature="0" /><path
           d="m 1541.89,864.914 0,101.563 c 0,40.513 -19.08,83.803 -74.25,83.803 -28.98,0 -50.78,-11.6 -64.81,-34.5 l -1.93,-3.14 0,28.38 0,0 c 0,2.28 -2.24,4.47 -4.5,4.54 l -85.16,0.01 0,-23.69 20.6,0 0,0 c 2.25,0 4.5,-2.19 4.62,-4.4 l 0,-180.835 70.27,0 0.04,96.519 c 0,42.285 12.79,58.766 37.58,58.766 4.54,0.039 13.13,-1.129 19.58,-9.399 5.88,-7.558 8.74,-20.691 8.74,-40.14 l 0,-105.746 94.44,-0.004 0,23.656 -20.75,0 c -2.25,0.082 -4.47,2.344 -4.47,4.617"
           style="fill:#fafafa;fill-opacity:1;fill-rule:evenodd;stroke:none"
           id="path4162"
           inkscape:connector-curvature="0" /><path
           d="M 544.063,1050.11 C 478.559,1050.11 440,1001.73 440,941.133 c 0,-65.422 45.305,-109.375 112.855,-109.375 27.336,0 52.684,6.695 72.395,15.23 0,0 0.652,0.274 1.191,0.504 l 0,51.067 c -1.273,-0.735 -2.867,-1.571 -2.867,-1.571 -24.031,-12.789 -49.918,-15.484 -59.836,-15.484 -30.39,0 -50.277,14.512 -54.332,35.555 l -0.238,1.238 c 0,0 131.137,0 133.176,0 0,1.812 0,14.969 0,14.969 0,74.254 -38.063,116.844 -98.281,116.844 z m -35.95,-87.465 0.125,1.148 c 1.5,14.102 9.723,39.187 36.192,39.187 25.3,0 32.636,-20.23 34.265,-34.445 l -0.004,0.008 c 0.555,-3.633 -1.925,-5.941 -4.636,-5.898 l -65.942,0"
           style="fill:#fafafa;fill-opacity:1;fill-rule:evenodd;stroke:none"
           id="path4164"
           inkscape:connector-curvature="0" /><path
           d="m 829.367,1109.62 -106.308,-0.01 0,-23.65 20.589,0 0,0 c 2.321,0 4.618,-2.3 4.625,-4.62 l 0,-216.445 c -0.019,-2.313 -2.308,-4.598 -4.625,-4.598 l -20.589,0 0,-23.652 120.91,0 0,23.652 -20.594,0 c -2.32,0 -4.621,2.305 -4.621,4.625 l -0.008,0.004 0,65.781 23.547,0 c 63.437,0 102.164,37.746 102.164,88.853 0,53.84 -36.48,90.06 -115.09,90.06 z m 4.297,-126.62 -14.922,0 0,74.74 14.922,0 c 25.41,0 40.227,-13.85 40.227,-37.03 0,-24.011 -14.45,-37.71 -40.227,-37.71"
           style="fill:#fafafa;fill-opacity:1;fill-rule:evenodd;stroke:none"
           id="path4166"
           inkscape:connector-curvature="0" /><path
           d="m 409.996,896.109 -0.004,0 c 0,-2.296 -2.273,-4.578 -4.578,-4.578 l 0,-0.004 -76.781,-0.004 0,183.117 c 0,2.3 2.285,4.58 4.586,4.58 l 20.383,0 0,23.42 -120.848,0.01 0,-23.42 20.387,0 0,0 c 2.261,0 4.496,-2.2 4.574,-4.46 l 0,-210.247 c -0.078,-2.257 -2.313,-4.46 -4.574,-4.46 l 0,-0.004 -20.387,0 0,-23.414 200.66,0.007 0,79.844 -23.418,0 0,-20.387"
           style="fill:#fafafa;fill-opacity:1;fill-rule:evenodd;stroke:none"
           id="path4168"
           inkscape:connector-curvature="0" /></g></g></g></svg>