<?xml version="1.0" encoding="UTF-8" standalone="no"?>
<!-- Created with Inkscape (http://www.inkscape.org/) -->
<svg xmlns:svg="http://www.w3.org/2000/svg" xmlns="http://www.w3.org/2000/svg" version="1.0" width="602.36218" height="242.18503" id="svg2407">
  <defs id="defs2409"/>
  <g id="layer1">
    <g transform="matrix(1.1530632,0,0,-1.1530632,-46.33804,764.29715)" id="g4020">
      <path d="M 55.551654,558.29935 L 301.43547,647.47734 L 547.22386,558.29935 L 301.43547,468.16772 L 55.551654,558.29935" id="path35" style="fill:#e30b05;fill-opacity:1;fill-rule:nonzero;stroke:none"/>
      <path d="M 244.21875,205.34375 L 244.21875,206.1875 L 244.21875,344.4375 L 240.375,344.4375 L 240.375,243.25 L 241,243.25 L 241,242.4375 L 241,216.40625 L 241,215.59375 L 240.15625,215.59375 L 237.4375,215.59375 L 237.4375,206.40625 L 237.4375,205.59375 L 236.59375,205.59375 L 216.09375,205.59375 L 215.25,205.59375 L 215.25,206.40625 L 215.25,224.65625 L 215.25,225.46875 L 216.09375,225.46875 L 220.875,225.46875 L 220.875,230.25 L 220.5,230.25 L 220.5,231.09375 L 220.5,345.0625 L 196.875,345.0625 L 196.875,206.40625 L 196.875,205.59375 L 196.0625,205.59375 L 173.5,205.59375 L 172.6875,205.59375 L 172.6875,206.40625 L 172.6875,363.15625 L 172.6875,364.03125 L 173.5,364.03125 L 220.5,364.03125 L 221.3125,364.03125 L 222.15625,364.03125 L 233.46875,364.03125 L 239.5625,364.03125 L 240.375,364.03125 L 244.21875,364.03125 L 252.34375,364.03125 L 253.15625,364.03125 L 264.71875,364.03125 L 265.5625,364.03125 L 265.5625,363.15625 L 265.5625,359.5625 C 267.75514,362.59161 271.16316,364.48951 275,364.6875 C 276.61959,364.77107 278.2514,364.58359 279.875,364.09375 C 286.3694,362.13441 292.1875,355.42018 292.1875,343.0625 L 292.1875,250.65625 C 292.18829,250.64154 292.18674,250.6397 292.1875,250.625 C 292.51423,244.35771 291.44064,239.56361 289.4375,236.09375 C 287.42966,232.61575 284.48896,230.48672 281.28125,229.71875 C 275.63379,228.36667 269.42439,231.26371 265.5625,237.0625 L 265.5625,206.1875 L 265.5625,205.34375 L 264.71875,205.34375 L 245.03125,205.34375 L 244.21875,205.34375 z M 318.3125,205.34375 L 318.09375,205.8125 L 308.78125,225 L 308.1875,226.21875 L 309.5625,226.21875 L 319.9375,226.21875 L 320.34375,226.21875 L 320.59375,225.875 L 335.34375,206.6875 L 336.40625,205.34375 L 334.71875,205.34375 L 318.875,205.34375 L 318.3125,205.34375 z M 463.59375,207.125 L 463.59375,207.96875 L 463.59375,212.625 L 457.03125,212.625 C 457.03125,212.44706 457.03125,210.46875 457.03125,210.46875 L 457.03125,209.25 L 455.90625,209.6875 L 437.65625,216.5 L 437.125,216.6875 L 437.125,217.25 C 437.125,217.25 437.125,222.28424 437.125,229.40625 L 433.09375,229.40625 L 432.21875,229.40625 L 432.21875,230.25 L 432.21875,245.875 L 432.21875,246.71875 L 433.09375,246.71875 L 437.125,246.71875 C 437.12501,283.75624 437.125,343.72151 437.125,352 C 437.125,356.5941 438.41282,359.83066 440.65625,361.90625 C 442.89968,363.98184 445.99397,364.82807 449.40625,364.8125 C 453.90079,364.79199 459.02722,363.34463 463.9375,361.28125 L 463.9375,363.0625 L 463.9375,363.90625 L 464.75,363.90625 L 483.875,363.90625 L 484.6875,363.90625 L 484.6875,363.0625 L 484.34375,230.25 L 484.34375,229.40625 L 484.21875,229.40625 L 484.21875,225.25 L 484.34375,225.25 L 484.34375,224.40625 L 484.34375,207.96875 L 484.34375,207.125 L 483.5,207.125 L 464.40625,207.125 L 463.59375,207.125 z M 384.0625,228.40625 C 382.68835,228.48172 381.42071,228.81619 380.25,229.34375 C 377.34446,230.65308 375.27426,233.15561 373.59375,235.8125 L 373.59375,231.09375 L 373.59375,230.25 L 372.75,230.25 L 347.21875,230.25 L 346.40625,230.25 L 346.40625,231.09375 L 346.40625,363.15625 L 346.40625,364.03125 L 347.21875,364.03125 L 372.75,364.03125 L 373.59375,364.03125 L 373.59375,363.15625 L 373.59375,247.25 C 374.52004,246.04186 376.00105,245.57125 378.125,246.0625 C 379.25809,246.32457 380.55707,246.87534 381.9375,247.75 C 381.91523,248.19044 381.90625,248.63604 381.90625,249.09375 L 381.90625,269.84375 L 381.90625,270.65625 L 382.78125,270.65625 L 400.15625,270.65625 L 401,270.65625 L 401,269.84375 L 401,250.75 C 401,248.16451 402.6856,247.07462 404.40625,247.0625 C 405.26657,247.05644 406.09504,247.37875 406.71875,247.96875 C 407.34246,248.55875 407.78125,249.42357 407.78125,250.75 L 407.78125,273.78125 C 399.34273,279.02222 392.90791,282.57552 388.5625,286.5 C 384.13313,290.50031 381.84551,295.05969 381.90625,302.03125 L 381.90625,343.625 L 381.90625,351.125 C 381.90625,357.78739 386.10114,362.78874 391.625,364.3125 C 393.00596,364.69344 394.46881,364.81505 395.96875,364.75 C 399.93541,364.57797 404.11436,362.5897 407.78125,358.8125 L 407.78125,363.15625 L 407.78125,364.03125 L 408.625,364.03125 L 426.28125,364.03125 L 427.125,364.03125 L 427.125,363.15625 L 427.125,249.09375 C 427.30876,241.0132 424.228,235.81894 419.84375,232.78125 C 415.4595,229.74356 409.8644,228.81251 404.8125,228.8125 L 404.09375,228.8125 C 400.43029,228.8125 396.52329,229.50083 393,231.09375 C 389.69537,229.03286 386.70773,228.26096 384.0625,228.40625 z M 542.625,228.75 L 542.625,229.875 L 542.625,363.0625 L 542.625,363.90625 L 543.46875,363.90625 L 566.375,363.90625 L 580.1875,363.90625 L 590.78125,363.90625 L 591.625,363.90625 L 591.625,363.0625 L 591.625,250.625 C 591.625,238.20741 585.78913,231.55447 579.125,230.03125 C 572.80253,228.58611 565.9914,231.8576 562.9375,238.40625 L 556.6875,233.1875 L 556.5625,233.125 L 556.40625,233.0625 L 543.71875,229.09375 L 542.625,228.75 z M 519,228.78125 C 517.55687,228.77057 516.07508,228.87073 514.5625,229.0625 L 514.4375,229.0625 L 513.75,229.0625 C 508.72296,229.0625 503.21039,230.30293 498.90625,233.46875 C 494.60211,236.63457 491.5625,241.78294 491.5625,249.21875 L 491.5625,343.75 C 491.5625,351.19084 494.67316,356.52382 499.34375,359.96875 C 504.01434,363.41368 510.18164,365.00862 516.4375,365.3125 C 518.63205,365.43405 522.64709,365.48618 526.6875,364.4375 C 530.72791,363.38882 534.86479,361.2079 537.03125,356.875 L 537.625,355.65625 L 537.125,355.65625 C 537.12413,355.5189 537.12582,355.45459 537.125,355.28125 C 537.1212,354.4839 537.06524,353.33479 537.0625,351.84375 C 537.05702,348.86169 537.06438,344.55081 537.0625,339.4375 C 537.05875,329.21088 537.0575,315.57345 537.0625,301.9375 C 537.07251,274.66561 537.125,247.4375 537.125,247.4375 C 537.125,240.03617 534.54464,234.93776 530.375,232 C 527.26809,229.81099 523.32938,228.81329 519,228.78125 z M 322.0625,229.1875 C 317.03546,229.1875 311.52289,230.42793 307.21875,233.59375 C 302.91461,236.75957 299.875,241.90792 299.875,249.34375 L 299.875,343.875 C 297.84545,351.63995 300.7882,357.06804 305.46875,360.25 C 310.17756,363.45118 316.5216,364.61408 321.53125,364.625 C 321.53125,364.625 321.59248,364.6249 321.59375,364.625 C 321.71674,364.63434 327.66035,365.06134 333.59375,363.09375 C 336.59135,362.09971 339.60654,360.47043 341.8125,357.8125 C 344.0119,355.16249 345.33019,351.48343 345.0625,346.59375 C 345.0617,346.57915 345.06332,346.57713 345.0625,346.5625 L 345.0625,310.625 L 345.0625,309.75 L 344.25,309.75 L 326.71875,309.75 L 325.90625,309.75 L 325.90625,310.625 L 325.90625,344.6875 C 325.90625,347.27859 324.21615,348.39421 322.53125,348.40625 C 321.6888,348.41228 320.89474,348.08868 320.28125,347.5 C 319.66776,346.91132 319.21875,346.01669 319.21875,344.6875 L 319.21875,297.03125 L 344.25,297.03125 L 345.0625,297.03125 L 345.0625,296.1875 L 345.0625,249.34375 C 345.0625,241.90792 342.06962,236.7595 337.75,233.59375 C 333.43038,230.428 327.86625,229.1875 322.78125,229.1875 L 322.0625,229.1875 z M 461.90625,235.15625 L 463.59375,235.15625 L 463.875,343.9375 C 463.35823,343.87567 462.8429,343.81117 462.34375,343.71875 C 460.79485,343.43197 459.37901,342.95852 458.4375,342.34375 C 457.49599,341.72898 457.03125,341.04855 457.03125,340.03125 C 457.03124,336.72335 457.03125,284.32344 457.03125,246.71875 L 461.09375,246.71875 L 461.90625,246.71875 L 461.90625,245.875 L 461.90625,235.15625 z M 568.6875,245.875 C 568.91571,245.87793 569.22849,245.99585 569.5625,246.5625 C 569.89651,247.12915 570.15625,248.08777 570.15625,249.4375 L 570.15625,351.875 L 567.1875,351.875 L 567.1875,249.4375 C 567.1875,248.05573 567.48132,247.09028 567.8125,246.53125 C 568.14368,245.97222 568.45929,245.87207 568.6875,245.875 z" transform="matrix(0.8,0,0,-0.8,0,792)" id="path37" style="fill:#000000;fill-opacity:1;fill-rule:nonzero;stroke:none"/>
      <path d="M 165.53125,202.34375 L 165.53125,356.875 L 208.34375,356.875 L 226.5625,356.875 L 226.5625,224.75 L 208.34375,224.75 L 208.34375,339.5625 L 185.5625,339.5625 L 185.5625,202.34375 L 165.53125,202.34375 z M 208.21875,202.34375 L 208.21875,218.9375 L 226.6875,218.9375 L 226.6875,202.34375 L 208.21875,202.34375 z M 236.71875,202.34375 L 236.71875,356.5 L 256.375,356.5 L 256.375,348.875 C 259.35555,363.30148 281.40925,361.88293 282.125,336.25 L 282.125,244.09375 C 282.125,219.77216 261.50195,219.17571 256.375,233.125 L 256.375,202.34375 L 236.71875,202.34375 z M 456.3125,202.46875 L 456.3125,218.8125 L 475.40625,218.8125 L 475.40625,202.46875 L 456.3125,202.46875 z M 313.96875,203.53125 L 307.28125,217.25 L 317.65625,217.25 L 329.21875,203.53125 L 313.96875,203.53125 z M 444.5,204.625 L 426.28125,210.8125 C 426.28124,210.81249 426.28125,216.64339 426.28125,224.75 L 421.375,224.75 L 421.375,239.5625 L 426.28125,239.5625 C 426.28124,276.52117 426.28125,334.10063 426.28125,346.5 C 426.28124,360.56771 441.76181,358.18972 449.75,354.375 L 449.75,342.4375 C 446.29314,342.43751 444.5,338.96411 444.5,333.71875 C 444.5,330.38032 444.5,277.23693 444.5,239.5625 L 449.40625,239.5625 L 449.40625,224.75 L 444.40625,224.75 L 444.5,204.625 z M 312.40625,223.5625 C 302.62955,223.5625 291.06249,228.45512 291.0625,243 L 291.0625,337.5625 C 291.0625,351.98809 302.62954,357.59374 312.40625,357.59375 L 313.125,357.59375 C 323.02099,357.59375 334.59374,351.9881 334.59375,337.5625 L 334.59375,304.28125 L 317.0625,304.28125 L 317.0625,338.375 C 317.0625,344.33611 308.71874,344.45541 308.71875,338.375 L 308.71875,289.875 L 334.59375,289.875 L 334.59375,243 C 334.59375,228.45511 323.02098,223.5625 313.125,223.5625 L 312.40625,223.5625 z M 504.96875,223.5625 C 495.07363,223.5625 483.5,228.45512 483.5,243 L 483.5,337.5625 C 483.5,351.98809 495.29238,357.34375 505.1875,357.34375 L 505.90625,357.34375 C 515.68208,357.34375 526.99997,351.9881 527,337.5625 L 527,304.28125 L 527,243 C 527,228.45511 515.4642,223.5625 505.6875,223.5625 L 504.96875,223.5625 z M 567.3125,224.28125 C 562.54225,224.53151 557.88093,227.8022 555.75,233.46875 L 555.75,224.78125 L 536.0625,224.78125 L 536.0625,356.875 L 555.75,356.875 L 555.75,243.25 C 555.75,237.1696 563.62503,237.28889 563.625,243.25 L 563.625,356.875 L 581.5,356.875 L 581.5,244.4375 C 581.5,229.99656 574.28441,223.91548 567.3125,224.28125 z M 456.1875,224.75 L 456.1875,356.375 L 474.1875,356.375 L 474.1875,224.75 L 456.1875,224.75 z M 505.1875,237.53125 C 507.67519,237.54903 510.1875,239.50499 510.1875,242.875 L 510.1875,338 C 510.1875,341.37002 507.6752,343.35721 505.1875,343.375 C 503.94365,343.38389 502.70124,342.94403 501.75,342.03125 C 500.79876,341.11847 500.1875,339.71101 500.1875,338 L 500.1875,242.875 C 500.1875,241.16399 500.79876,239.78778 501.75,238.875 C 502.70124,237.96222 503.94365,237.52236 505.1875,237.53125 z M 313,237.875 C 315.4877,237.89278 318,239.87999 318,243.25 L 318,277.9375 L 318,278.78125 L 317.1875,278.78125 L 308.8125,278.78125 L 308,278.78125 L 308,277.9375 L 308,243.25 C 308,241.53899 308.61126,240.16279 309.5625,239.25 C 310.51374,238.33721 311.75615,237.86611 313,237.875 z M 260.0625,238 C 262.40908,238.01835 264.71875,240.03835 264.71875,243.375 L 264.71875,338.5 C 264.71875,341.83664 262.40908,343.85666 260.0625,343.875 C 257.71592,343.89334 255.4375,341.88931 255.4375,338.5 L 255.4375,243.375 C 255.4375,239.9857 257.71592,237.98165 260.0625,238 z" transform="matrix(0.8,0,0,-0.8,0,792)" id="path4001" style="fill:#ffffff;fill-opacity:1;fill-rule:nonzero;stroke:none;stroke-width:1.04907084;stroke-linecap:butt;stroke-linejoin:miter;stroke-miterlimit:3.86400008;stroke-dasharray:none;stroke-opacity:1"/>
      <path d="M 289.98974,599.59764 C 292.85135,604.65282 296.18943,601.69648 300.86288,597.11846 C 305.4409,592.44431 315.6467,604.93912 306.8717,611.23425 C 298.0967,617.43324 292.75592,611.99702 289.98974,606.5608 L 289.895,606.8464 L 289.895,612.18788 L 274.15755,612.18788 L 274.15755,506.79527 L 289.98974,506.79527 L 289.98974,599.59764 z" id="path219" style="fill:#ffffff;fill-opacity:1;fill-rule:nonzero;stroke:none;stroke-width:1.04907084;stroke-linecap:butt;stroke-linejoin:miter;stroke-miterlimit:3.86400008;stroke-dasharray:none;stroke-opacity:1"/>
      <path d="M 273.625,506.28125 L 273.625,506.78125 L 273.625,612.1875 L 273.625,612.71875 L 274.15625,612.71875 L 289.90625,612.71875 L 290.40625,612.71875 L 290.40625,612.1875 L 290.40625,608.15625 C 291.77244,610.4445 293.51447,612.63349 295.96875,613.75 C 298.91711,615.09128 302.70002,614.82637 307.1875,611.65625 C 309.48716,610.00649 310.59238,607.90436 310.8125,605.78125 C 311.03262,603.65814 310.37587,601.5264 309.3125,599.78125 C 308.24913,598.0361 306.75508,596.63784 305.15625,595.96875 C 303.55742,595.29966 301.79442,595.4284 300.5,596.75 C 298.16755,599.03482 296.15965,600.85787 294.5625,601.46875 C 293.76392,601.77419 293.11711,601.79787 292.46875,601.5 C 291.83973,601.21102 291.1625,600.54581 290.5,599.40625 L 290.5,506.78125 L 290.5,506.28125 L 290,506.28125 L 274.15625,506.28125 L 273.625,506.28125 z M 274.6875,507.3125 L 289.46875,507.3125 L 289.46875,599.59375 L 289.46875,599.75 L 289.53125,599.84375 C 290.27898,601.16466 291.10285,602.04223 292.03125,602.46875 C 292.95965,602.89527 293.95967,602.84275 294.9375,602.46875 C 296.89315,601.72075 298.87775,599.7932 301.21875,597.5 L 301.25,597.5 C 302.24459,596.48452 303.42189,596.3817 304.75,596.9375 C 306.07811,597.4933 307.47404,598.76257 308.4375,600.34375 C 309.40096,601.92493 309.9412,603.81214 309.75,605.65625 C 309.5588,607.50036 308.65034,609.3147 306.5625,610.8125 C 302.27497,613.84137 299.01357,613.96739 296.40625,612.78125 C 293.79893,611.59511 291.82201,608.97199 290.46875,606.3125 L 289.875,605.21875 L 289.5,606.40625 L 289.40625,606.6875 L 289.375,606.75 L 289.375,606.84375 L 289.375,611.65625 L 274.6875,611.65625 L 274.6875,507.3125 z" id="path4026" style="fill:#000000;fill-opacity:1;fill-rule:nonzero;stroke:none;stroke-width:1.04907084;stroke-linecap:butt;stroke-linejoin:miter;stroke-miterlimit:3.86400008;stroke-dasharray:none;stroke-opacity:1"/>
      <path d="M 393.71875,222.84375 C 383.94205,222.84375 372.37501,227.76104 372.375,242.1875 L 372.375,263.03125 L 389.78125,263.03125 L 389.78125,242.65625 C 389.78125,236.69514 398.36927,236.09954 398.25,242.65625 L 398.25,267.3125 C 380.84385,278.16109 372.25573,281.62733 372.375,295.21875 L 372.375,336.71875 L 372.375,344.34375 C 372.61271,358.53164 387.99786,362.69474 398.25,349.9375 L 398.25,356.375 L 415.90625,356.375 L 415.90625,242.1875 C 415.90625,227.76104 404.33261,222.84375 394.4375,222.84375 L 393.71875,222.84375 z M 399.09375,283.90625 L 399.09375,285.46875 L 399.09375,338.40625 C 399.09375,341.73734 396.82372,343.73155 394.5,343.75 C 392.17628,343.76845 389.9375,341.79011 389.9375,338.40625 L 389.9375,295.6875 C 389.9375,289.19226 396.12078,285.85673 397.78125,284.75 L 399.09375,283.90625 z" transform="matrix(0.8,0,0,-0.8,0,792)" id="path223" style="fill:#ffffff;fill-opacity:1;fill-rule:nonzero;stroke:none;stroke-width:1.31133854;stroke-linecap:butt;stroke-linejoin:miter;stroke-miterlimit:3.86400008;stroke-dasharray:none;stroke-opacity:1"/>
      <path d="M 164.875,201.6875 L 164.875,202.34375 L 164.875,356.875 L 164.875,357.5 L 165.5625,357.5 L 207.6875,357.5 L 208.3125,357.5 L 209,357.5 L 226.5625,357.5 L 227.21875,357.5 L 227.21875,356.875 L 227.21875,224.75 L 227.21875,224.09375 L 226.5625,224.09375 L 208.3125,224.09375 L 207.6875,224.09375 L 207.6875,224.75 L 207.6875,338.90625 L 186.21875,338.90625 L 186.21875,202.34375 L 186.21875,201.6875 L 185.5625,201.6875 L 165.5625,201.6875 L 164.875,201.6875 z M 207.53125,201.6875 L 207.53125,202.34375 L 207.53125,218.90625 L 207.53125,219.5625 L 208.1875,219.5625 L 226.6875,219.5625 L 227.34375,219.5625 L 227.34375,218.90625 L 227.34375,202.34375 L 227.34375,201.6875 L 226.6875,201.6875 L 208.1875,201.6875 L 207.53125,201.6875 z M 236.0625,201.6875 L 236.0625,202.34375 L 236.0625,356.5 L 236.0625,357.15625 L 236.71875,357.15625 L 256.375,357.15625 L 257.03125,357.15625 L 257.03125,356.5 L 257.03125,352.5 C 259.64927,357.55272 265.06567,359.75096 270.28125,358.21875 C 276.58528,356.36677 282.41815,349.28501 282.78125,336.28125 L 282.78125,336.25 L 282.78125,244.09375 C 282.78125,231.74783 277.48058,225.15549 271.34375,223.625 C 265.92872,222.27452 260.17565,225.07655 257.03125,230.6875 L 257.03125,202.34375 L 257.03125,201.6875 L 256.375,201.6875 L 236.71875,201.6875 L 236.0625,201.6875 z M 455.65625,201.8125 L 455.65625,202.46875 L 455.65625,218.78125 L 455.65625,219.4375 L 456.3125,219.4375 L 475.375,219.4375 L 476.0625,219.4375 L 476.0625,218.78125 L 476.0625,202.46875 L 476.0625,201.8125 L 475.375,201.8125 L 456.3125,201.8125 L 455.65625,201.8125 z M 313.5625,202.875 L 313.375,203.25 L 306.6875,216.9375 L 306.25,217.9375 L 307.3125,217.9375 L 317.65625,217.9375 L 317.96875,217.9375 L 318.15625,217.6875 L 329.71875,204 L 330.625,202.875 L 329.21875,202.875 L 314,202.875 L 313.5625,202.875 z M 166.1875,203 L 184.9375,203 L 184.9375,339.5625 L 184.9375,340.25 L 185.5625,340.25 L 207.6875,340.25 L 207.6875,356.21875 L 166.1875,356.21875 L 166.1875,203 z M 208.875,203 L 226.0625,203 L 226.0625,218.28125 L 208.875,218.28125 L 208.875,203 z M 237.375,203 L 255.71875,203 L 255.71875,233.125 L 257,233.34375 C 259.46433,226.63886 265.54356,223.54544 271,224.90625 C 276.45644,226.26706 281.46875,232.11809 281.46875,244.09375 L 281.46875,336.25 C 281.1161,348.87918 275.55315,355.30982 269.90625,356.96875 C 264.25935,358.62767 258.4559,355.64559 257.03125,348.75 L 255.71875,348.875 L 255.71875,349 L 255.71875,355.84375 L 237.375,355.84375 L 237.375,203 z M 456.9375,203.125 L 474.71875,203.125 L 474.71875,218.15625 L 456.9375,218.15625 L 456.9375,203.125 z M 445.15625,203.71875 L 444.3125,204 L 426.0625,210.1875 L 425.625,210.34375 L 425.625,210.8125 C 425.625,210.8125 425.625,216.58624 425.625,224.09375 L 421.375,224.09375 L 420.75,224.09375 L 420.75,224.75 L 420.75,239.53125 L 420.75,240.1875 L 421.375,240.1875 L 425.625,240.1875 C 425.62499,277.1687 425.625,334.17761 425.625,346.5 C 425.625,350.13731 426.60784,352.82486 428.3125,354.65625 C 430.01716,356.48764 432.39747,357.424 434.9375,357.78125 C 436.20751,357.95988 437.53998,358.0165 438.875,357.9375 C 442.88008,357.7005 446.96004,356.43539 450.03125,354.96875 L 450.4375,354.75 L 450.4375,354.375 L 450.4375,342.4375 L 450.4375,341.8125 L 449.75,341.8125 C 448.24019,341.81249 447.19795,341.08752 446.40625,339.71875 C 445.61455,338.34998 445.15625,336.29816 445.15625,333.75 C 445.15626,330.43505 445.15625,277.8101 445.15625,240.1875 L 449.40625,240.1875 L 450.03125,240.1875 L 450.03125,239.53125 L 450.03125,224.75 L 450.03125,224.09375 L 449.40625,224.09375 L 445.03125,224.09375 L 445.15625,204.625 L 445.15625,203.71875 z M 314.375,204.21875 L 327.78125,204.21875 L 317.34375,216.59375 L 308.375,216.59375 L 314.375,204.21875 z M 443.875,205.5625 L 443.75,224.75 L 443.75,225.4375 L 444.375,225.4375 L 448.75,225.4375 L 448.75,238.90625 L 444.53125,238.90625 L 443.875,238.90625 L 443.875,239.53125 C 443.875,277.20568 443.87501,330.41156 443.875,333.75 C 443.875,336.4472 444.31449,338.70356 445.28125,340.375 C 446.12458,341.83304 447.48196,342.64904 449.09375,342.875 L 449.09375,353.875 C 446.20719,355.20234 442.42401,356.36717 438.78125,356.59375 C 437.51996,356.6722 436.29155,356.66408 435.125,356.5 C 432.79191,356.17186 430.76341,355.30876 429.3125,353.75 C 427.86159,352.19124 426.90625,349.89652 426.90625,346.5 C 426.90625,334.10063 426.90624,276.4899 426.90625,239.53125 L 426.90625,238.90625 L 426.28125,238.90625 L 422.03125,238.90625 L 422.03125,225.4375 L 426.28125,225.4375 L 426.90625,225.4375 L 426.90625,224.75 C 426.90625,216.91588 426.90625,211.65692 426.90625,211.28125 L 443.875,205.5625 z M 393.71875,222.1875 C 388.72048,222.1875 383.2637,223.4194 379,226.5625 C 374.7363,229.7056 371.71876,234.79902 371.71875,242.1875 L 371.71875,263.03125 L 371.71875,263.6875 L 372.375,263.6875 L 389.78125,263.6875 L 390.4375,263.6875 L 390.4375,263.03125 L 390.4375,242.65625 C 390.4375,239.99056 392.28175,238.68827 394.09375,238.625 C 394.99975,238.59336 395.8817,238.8943 396.53125,239.53125 C 397.1808,240.1682 397.62098,241.15995 397.59375,242.65625 L 397.59375,266.9375 C 389.08169,272.2301 382.6564,275.79566 378.3125,279.75 C 373.90873,283.75886 371.6579,288.28447 371.71875,295.21875 L 371.71875,336.71875 L 371.71875,344.34375 C 371.84156,351.67352 375.96252,356.58771 381.40625,357.875 C 386.46995,359.07243 392.54012,357.02715 397.59375,351.5 L 397.59375,356.375 L 397.59375,357.03125 L 398.25,357.03125 L 415.90625,357.03125 L 416.5625,357.03125 L 416.5625,356.375 L 416.5625,242.1875 C 416.5625,234.79893 413.56182,229.70547 409.28125,226.5625 C 405.00068,223.41953 399.49366,222.1875 394.4375,222.1875 L 393.71875,222.1875 z M 312.40625,222.90625 C 307.40852,222.90625 301.95171,224.16008 297.6875,227.3125 C 293.42329,230.46492 290.40624,235.55375 290.40625,243 L 290.40625,337.5625 C 290.40625,344.95054 293.39868,350.18343 297.65625,353.5 C 301.91382,356.81658 307.39258,358.24999 312.40625,358.25 L 313.125,358.25 C 318.1968,358.25 323.69435,356.81651 327.96875,353.5 C 332.24315,350.18349 335.24999,344.95063 335.25,337.5625 L 335.25,304.28125 L 335.25,303.625 L 334.59375,303.625 L 317.0625,303.625 L 316.40625,303.625 L 316.40625,304.28125 L 316.40625,338.375 C 316.40625,341.04964 314.64555,342.23734 312.875,342.25 C 311.98973,342.25633 311.11831,341.93591 310.46875,341.3125 C 309.81919,340.68909 309.375,339.74515 309.375,338.375 L 309.375,290.53125 L 334.59375,290.53125 L 335.25,290.53125 L 335.25,289.875 L 335.25,243 C 335.25,235.55366 332.24974,230.46481 327.96875,227.3125 C 323.68776,224.16019 318.18105,222.90625 313.125,222.90625 L 312.40625,222.90625 z M 504.96875,222.90625 C 499.91312,222.90625 494.40609,224.1602 490.125,227.3125 C 485.84391,230.4648 482.84375,235.55365 482.84375,243 L 482.84375,337.5625 C 482.84375,344.95396 485.91909,350.12333 490.25,353.375 C 494.58091,356.62667 500.12165,358 505.1875,358 L 505.90625,358 C 510.9139,358 516.33335,356.63069 520.53125,353.375 C 524.72915,350.11931 527.65622,344.94678 527.65625,337.5625 L 527.65625,304.28125 L 527.65625,243 C 527.65625,235.55421 524.66273,230.46519 520.40625,227.3125 C 516.14977,224.15981 510.68523,222.90625 505.6875,222.90625 L 504.96875,222.90625 z M 393.71875,223.5 L 394.4375,223.5 C 399.27645,223.5 404.51999,224.70272 408.5,227.625 C 412.48001,230.54727 415.25,235.14961 415.25,242.1875 L 415.25,355.71875 L 398.90625,355.71875 L 398.90625,349.9375 L 398.90625,348.0625 L 397.75,349.53125 C 392.74608,355.75789 386.59006,357.74568 381.71875,356.59375 C 376.84744,355.44182 373.14615,351.20187 373.03125,344.34375 L 373.03125,336.71875 L 373.03125,295.21875 C 372.97283,288.56161 374.9755,284.55302 379.1875,280.71875 C 383.3995,276.88447 389.8762,273.30833 398.59375,267.875 L 398.90625,267.6875 L 398.90625,267.3125 L 398.90625,242.65625 C 398.93867,240.87419 398.36466,239.50293 397.4375,238.59375 C 396.51034,237.68457 395.25735,237.26969 394.03125,237.3125 C 391.57905,237.39812 389.125,239.36082 389.125,242.65625 L 389.125,262.375 L 373.03125,262.375 L 373.03125,242.1875 C 373.03125,235.14951 375.81725,230.54716 379.78125,227.625 C 383.74525,224.70284 388.94033,223.5 393.71875,223.5 z M 567.6875,223.65625 C 563.27579,223.77915 558.99457,226.44516 556.40625,231 L 556.40625,224.75 L 556.40625,224.09375 L 555.75,224.09375 L 536.09375,224.09375 L 535.4375,224.09375 L 535.4375,224.75 L 535.4375,356.875 L 535.4375,357.5 L 536.09375,357.5 L 555.75,357.5 L 556.40625,357.5 L 556.40625,356.875 L 556.40625,243.25 C 556.40625,240.49264 558.0547,239.36262 559.6875,239.375 C 561.3203,239.38738 562.96875,240.55794 562.96875,243.25 L 562.96875,356.875 L 562.96875,357.5 L 563.625,357.5 L 581.5,357.5 L 582.15625,357.5 L 582.15625,356.875 L 582.15625,244.4375 C 582.15625,232.09242 576.87389,225.53091 570.75,224 C 569.73702,223.74676 568.70559,223.62789 567.6875,223.65625 z M 455.5625,224.09375 L 455.5625,224.75 L 455.5625,356.375 L 455.5625,357.03125 L 456.21875,357.03125 L 474.1875,357.03125 L 474.84375,357.03125 L 474.84375,356.375 L 474.84375,224.75 L 474.84375,224.09375 L 474.1875,224.09375 L 456.21875,224.09375 L 455.5625,224.09375 z M 312.40625,224.21875 L 313.125,224.21875 C 317.96492,224.21875 323.20811,225.41353 327.1875,228.34375 C 331.16689,231.27398 333.9375,235.90145 333.9375,243 L 333.9375,289.21875 L 308.71875,289.21875 L 308.0625,289.21875 L 308.0625,289.875 L 308.0625,338.375 C 308.0625,340.04506 308.64761,341.37195 309.5625,342.25 C 310.47739,343.12805 311.70558,343.53982 312.90625,343.53125 C 315.30757,343.51407 317.71875,341.66147 317.71875,338.375 L 317.71875,304.9375 L 333.9375,304.9375 L 333.9375,337.5625 C 333.9375,344.59997 331.14222,349.37602 327.15625,352.46875 C 323.17028,355.56148 317.94919,356.9375 313.125,356.9375 L 312.40625,356.9375 C 307.64321,356.9375 302.43887,355.5614 298.46875,352.46875 C 294.49863,349.3761 291.71875,344.60005 291.71875,337.5625 L 291.71875,243 C 291.71875,235.90137 294.50526,231.27386 298.46875,228.34375 C 302.43224,225.41364 307.62727,224.21875 312.40625,224.21875 z M 504.96875,224.21875 L 505.6875,224.21875 C 510.46648,224.21875 515.6694,225.41391 519.625,228.34375 C 523.5806,231.27359 526.34375,235.9009 526.34375,243 L 526.34375,304.28125 L 526.34375,337.5625 C 526.34374,344.60382 523.62376,349.31521 519.71875,352.34375 C 515.81374,355.37229 510.67442,356.6875 505.90625,356.6875 L 505.1875,356.6875 C 500.35823,356.6875 495.07031,355.3763 491.03125,352.34375 C 486.99219,349.3112 484.15625,344.59662 484.15625,337.5625 L 484.15625,243 C 484.15625,235.90148 486.92675,231.27398 490.90625,228.34375 C 494.88575,225.41353 500.12925,224.21875 504.96875,224.21875 z M 567.3125,224.9375 C 568.35103,224.88289 569.41734,224.99497 570.4375,225.25 C 575.87838,226.61017 580.875,232.46099 580.875,244.4375 L 580.875,356.21875 L 564.25,356.21875 L 564.25,243.25 C 564.25,239.98094 561.98915,238.1112 559.6875,238.09375 C 557.38585,238.0763 555.0625,239.92696 555.0625,243.25 L 555.0625,356.21875 L 536.71875,356.21875 L 536.71875,225.4375 L 555.0625,225.4375 L 555.0625,233.46875 L 556.375,233.71875 C 558.42453,228.26863 562.8122,225.17413 567.3125,224.9375 z M 209,225.4375 L 225.9375,225.4375 L 225.9375,356.21875 L 209,356.21875 L 209,339.5625 L 209,338.90625 L 209,225.4375 z M 456.84375,225.4375 L 473.5625,225.4375 L 473.5625,355.75 L 456.84375,355.75 L 456.84375,225.4375 z M 505.1875,236.875 C 503.78598,236.86498 502.36235,237.36886 501.28125,238.40625 C 500.1937,239.44982 499.53125,241.00782 499.53125,242.875 L 499.53125,338 C 499.53125,339.86717 500.1883,341.45124 501.28125,342.5 C 502.36235,343.53739 503.78598,344.04128 505.1875,344.03125 C 508.02119,344.01099 510.84375,341.69588 510.84375,338 L 510.84375,242.875 C 510.84375,239.17912 508.01569,236.89521 505.1875,236.875 z M 313,237.21875 C 311.58749,237.20865 310.16946,237.74902 309.09375,238.78125 C 308.0062,239.82484 307.34375,241.38282 307.34375,243.25 L 307.34375,277.9375 L 307.34375,278.78125 L 307.34375,279.4375 L 308,279.4375 L 308.8125,279.4375 L 317.1875,279.4375 L 318,279.4375 L 318.65625,279.4375 L 318.65625,278.78125 L 318.65625,277.9375 L 318.65625,243.25 C 318.65625,239.55412 315.83369,237.239 313,237.21875 z M 260.0625,237.34375 C 257.33971,237.32246 254.78125,239.69216 254.78125,243.375 L 254.78125,338.5 C 254.78125,342.18285 257.33972,344.55253 260.0625,344.53125 C 262.78157,344.51 265.375,342.13891 265.375,338.5 L 265.375,243.375 C 265.375,239.73607 262.78157,237.36501 260.0625,237.34375 z M 505.1875,238.1875 C 507.33469,238.20285 509.53125,239.83085 509.53125,242.875 L 509.53125,338 C 509.53125,341.04416 507.32921,342.70343 505.1875,342.71875 C 504.10133,342.72651 503.04012,342.35068 502.21875,341.5625 C 501.40922,340.7857 500.84375,339.55485 500.84375,338 L 500.84375,242.875 C 500.84375,241.32015 501.40382,240.12573 502.21875,239.34375 C 503.04012,238.55558 504.10133,238.17974 505.1875,238.1875 z M 313,238.53125 C 315.14171,238.54656 317.34375,240.20585 317.34375,243.25 L 317.34375,277.9375 L 317.34375,278.125 L 317.1875,278.125 L 308.8125,278.125 L 308.65625,278.125 L 308.65625,277.9375 L 308.65625,243.25 C 308.65625,241.69515 309.21632,240.50074 310.03125,239.71875 C 310.85802,238.9254 311.92481,238.52357 313,238.53125 z M 260.0625,238.65625 C 262.03657,238.67169 264.0625,240.34062 264.0625,243.375 L 264.0625,338.5 C 264.0625,341.53437 262.03657,343.20333 260.0625,343.21875 C 258.09213,343.23415 256.09375,341.59578 256.09375,338.5 L 256.09375,243.375 C 256.09375,240.27924 258.09213,238.64084 260.0625,238.65625 z M 399.75,282.71875 L 398.75,283.34375 L 397.4375,284.1875 L 397.40625,284.21875 C 395.86495,285.24605 389.28125,288.77614 389.28125,295.6875 L 389.28125,338.40625 C 389.28125,342.07931 391.80082,344.42768 394.5,344.40625 C 397.19543,344.38485 399.75,342.03523 399.75,338.40625 L 399.75,285.46875 L 399.75,283.90625 L 399.75,282.71875 z M 398.4375,285.09375 L 398.4375,285.46875 L 398.4375,338.40625 C 398.4375,341.43946 396.45203,343.07825 394.5,343.09375 C 392.55173,343.10923 390.59375,341.50091 390.59375,338.40625 L 390.59375,295.6875 C 390.59375,289.60837 396.37661,286.46741 398.15625,285.28125 L 398.4375,285.09375 z" transform="matrix(0.8,0,0,-0.8,0,792)" id="path3936" style="fill:#000000;fill-opacity:1;fill-rule:nonzero;stroke:none;stroke-width:1.04907084;stroke-linecap:butt;stroke-linejoin:miter;stroke-miterlimit:3.86400008;stroke-dasharray:none;stroke-opacity:1"/>
    </g>
  </g>
</svg>