<svg xmlns="http://www.w3.org/2000/svg" width="302" height="39"><g fill="#010101"><path d="M-11.705-1.439c.152-.858.448-1.306.848-1.306.405 0 .696.242 1.346 1.568L4.135 27.188 17.718-1.534c.408-.812.663-1.211 1.106-1.211.452 0 .75.504.895 1.568l4.548 31.078c.457 3.179.958 4.625 2.446 5.082 1.447.45 2.451.507 3.097.507.458 0 .806.047.806.355 0 .392-.605.542-1.304.542-1.25 0-8.142-.15-10.142-.3-1.152-.093-1.452-.242-1.452-.551 0-.252.203-.404.555-.554.295-.112.447-.752.243-2.161l-2.985-22.138h-.208L4.434 33.526c-1.152 2.351-1.397 2.818-1.84 2.818-.46 0-.962-1.017-1.756-2.519-1.202-2.311-5.146-10.019-5.746-11.414-.452-1.054-3.447-7.388-5.203-11.166h-.188l-2.607 20.014c-.094.907-.144 1.562-.144 2.361 0 .951.64 1.408 1.497 1.617.895.195 1.595.252 2.097.252.391 0 .756.102.756.356 0 .449-.452.551-1.203.551-2.105 0-4.345-.159-5.244-.159-.954 0-3.355.159-4.954.159-.502-.012-.898-.111-.898-.551 0-.255.305-.356.798-.356.406 0 .747 0 1.502-.161 1.401-.3 1.792-2.249 2.051-3.962l4.943-32.805zM38.556 16.422c0-6.491 0-7.695-.057-9.057-.107-1.454-.5-1.903-1.901-2.313-.351-.102-1.094-.148-1.741-.148-.458 0-.755-.149-.755-.448 0-.309.353-.411.995-.411 2.298 0 5.099.102 6.352.102 1.39 0 11.139.048 11.993 0 .8-.057 1.493-.206 1.85-.252.25-.057.488-.205.692-.205.255 0 .305.205.305.401 0 .31-.249.811-.35 2.771-.041.459-.159 2.314-.25 2.818-.045.196-.147.7-.5.7-.3 0-.354-.195-.354-.55 0-.3-.051-1.063-.291-1.557-.358-.756-.704-1.363-2.899-1.559-.75-.114-5.999-.207-6.897-.207-.205 0-.306.152-.306.402v10.57c0 .251.051.447.306.447 1.002 0 6.697 0 7.704-.094 1.041-.102 1.686-.204 2.095-.653.349-.309.497-.56.702-.56.204 0 .347.207.347.447 0 .265-.106.971-.347 3.124a45.02 45.02 0 0 0-.205 2.863c0 .363-.05.961-.447.961-.312 0-.407-.148-.407-.355-.052-.459-.052-1.006-.152-1.559-.25-.857-.799-1.512-2.445-1.66-.794-.104-5.797-.205-6.897-.205-.197 0-.247.205-.247.464v3.412c0 1.464-.053 5.084 0 6.334.1 2.919 1.444 3.581 5.946 3.581 1.148 0 3-.059 4.148-.558 1.1-.507 1.594-1.411 1.893-3.17.106-.448.203-.652.499-.652.356 0 .408.557.408 1.005 0 .961-.356 3.871-.601 4.73-.306 1.109-.702 1.109-2.348 1.109-3.306 0-5.945-.06-8.095-.152-2.152-.057-3.799-.111-5.096-.111-.504 0-1.452.046-2.498.046a51.915 51.915 0 0 1-3.056.102c-.549 0-.84-.147-.84-.448 0-.196.147-.446.692-.446.647 0 1.152-.059 1.559-.16.896-.195 1.15-1.005 1.283-2.256.214-1.818.214-5.178.214-9.112v-7.534l-.001.003zM67.325 16.422c0-6.491 0-7.695-.042-9.057-.101-1.454-.497-1.903-1.907-2.313-.352-.102-1.101-.148-1.737-.148-.457 0-.76-.149-.76-.448 0-.309.354-.411 1.004-.411 2.29 0 5.096.102 6.336.102 1.356 0 4.511-.102 7.147-.102 5.495 0 12.894 0 17.689 4.885 2.201 2.203 4.148 5.784 4.148 10.859 0 5.384-2.301 9.46-4.795 11.931-2 2.006-6.635 5.027-14.745 5.027-1.594 0-3.492-.161-5.247-.252-1.74-.152-3.344-.264-4.446-.264-.493 0-1.445.046-2.5.046a51.29 51.29 0 0 1-3.041.102c-.549 0-.856-.147-.856-.447 0-.196.163-.447.702-.447.653 0 1.156-.058 1.548-.16.912-.195 1.148-1.005 1.299-2.256.203-1.818.203-5.177.203-9.112v-7.535zm5.894 4.729c0 4.526.056 7.799.105 8.646.051 1.062.152 2.573.503 3.023.544.8 2.298 1.707 5.741 1.707 3.999 0 6.948-.701 9.594-2.911 2.853-2.368 3.744-6.184 3.744-10.623 0-5.429-2.149-8.945-4.09-10.663-4.043-3.618-8.852-4.066-12.293-4.066-.899 0-2.353.094-2.696.289-.401.162-.553.363-.553.859-.056 1.464-.056 4.99-.056 8.349v5.39h.001zM109.337 16.422c0-6.491 0-7.695-.042-9.057-.101-1.454-.552-1.968-1.511-2.257-.489-.149-1.046-.206-1.595-.206-.447 0-.7-.102-.7-.504 0-.243.354-.354 1.055-.354 1.649 0 4.648.111 5.896.111 1.097 0 3.945-.111 5.638-.111.557 0 .905.111.905.354 0 .402-.251.504-.702.504-.443 0-.8.048-1.299.149-1.204.206-1.549.801-1.65 2.312-.101 1.362-.101 2.565-.101 9.058v7.538c0 4.131 0 7.555.202 9.363.153 1.157.456 1.811 1.747 2.008.605.104 1.606.16 2.251.16.505 0 .705.251.705.448 0 .299-.355.459-.857.459-2.899 0-5.891-.16-7.09-.16-.992 0-3.993.16-5.738.16-.557 0-.857-.16-.857-.459 0-.197.148-.448.7-.448.654 0 1.148-.057 1.549-.16.908-.197 1.156-.801 1.304-2.061.194-1.753.194-5.176.194-9.308v-7.537l-.004-.002zM132.566 25.63c-.243 0-.29.048-.391.309l-2.35 5.729c-.447 1.054-.65 2.106-.65 2.611 0 .754.405 1.212 1.751 1.212h.649c.552 0 .653.196.653.447 0 .356-.257.459-.707.459-1.447 0-3.5-.157-4.896-.157-.457 0-2.792.157-5.097.157-.543 0-.801-.103-.801-.459 0-.24.157-.447.509-.447.401 0 .901-.057 1.293-.057 2.002-.3 2.745-1.606 3.642-3.767l11.495-26.911c.5-1.212.856-1.718 1.289-1.718.663 0 .856.411 1.309 1.361 1.051 2.371 8.389 19.877 11.2 26.361 1.686 3.87 2.939 4.429 3.743 4.578.653.093 1.149.149 1.649.149.388 0 .605.148.605.446 0 .356-.247.46-1.896.46-1.56 0-4.759 0-8.462-.104-.794-.048-1.289-.048-1.289-.356 0-.24.091-.391.554-.446.307-.057.592-.449.397-.961l-3.402-8.59c-.09-.264-.239-.311-.442-.311l-10.355.005zm9.396-2.368c.204 0 .259-.094.204-.253l-4.146-10.867c-.057-.149-.103-.392-.204-.392-.147 0-.202.243-.247.392l-4.25 10.829c-.097.197 0 .291.152.291h8.491zM163.243 16.422c0-6.491 0-7.695-.047-9.057-.101-1.454-.508-1.903-1.889-2.313-.368-.102-1.115-.148-1.752-.148-.452 0-.755-.149-.755-.448 0-.309.341-.411 1.004-.411 2.286 0 5.088.102 6.341.102 1.798 0 5.3-.102 7.289-.102 5.5 0 7.502 1.811 8.194 2.413.94.905 2.202 2.808 2.202 5.131 0 6.036-4.805 10.364-11.053 10.364-.185 0-1.091 0-1.289-.048-.26 0-.555-.15-.555-.458 0-.356.508-.551 1.457-.551 2.433 0 5.88-2.567 5.88-6.948 0-1.399-.13-4.216-2.583-6.333C174.083 6.207 172.276 6 171.282 6c-.648 0-1.493.057-1.9.207-.238.102-.35.345-.35.8v16.952c0 3.935 0 7.291.193 9.158.156 1.204.413 2.015 1.706 2.21.646.103 1.604.159 2.249.159.498 0 .702.242.702.447 0 .301-.354.448-.796.448-2.949 0-6.064-.147-7.196-.147-1.003 0-3.805.147-5.555.147-.536 0-.843-.147-.843-.448 0-.196.147-.447.695-.447.652 0 1.16-.057 1.558-.159.896-.195 1.15-1.006 1.299-2.257.203-1.818.203-5.177.203-9.111V16.42l-.004.002zM193.417 25.63c-.249 0-.295.048-.396.309l-2.349 5.729c-.452 1.054-.652 2.106-.652 2.611 0 .754.409 1.212 1.764 1.212h.635c.554 0 .663.196.663.447 0 .356-.26.459-.701.459-1.456 0-3.505-.157-4.904-.157-.442 0-2.802.157-5.1.157-.552 0-.799-.103-.799-.459 0-.24.148-.447.499-.447.408 0 .9-.057 1.309-.057 1.991-.3 2.746-1.606 3.652-3.767l11.482-26.91c.499-1.212.848-1.718 1.299-1.718.653 0 .848.411 1.3 1.361 1.05 2.371 8.389 19.877 11.199 26.361 1.696 3.87 2.939 4.429 3.751 4.578.648.093 1.143.149 1.641.149.406 0 .602.148.602.446 0 .356-.24.46-1.899.46-1.56 0-4.746 0-8.451-.104-.793-.048-1.289-.048-1.289-.356 0-.24.092-.391.555-.446.296-.057.607-.449.386-.961l-3.392-8.59c-.091-.264-.238-.311-.442-.311l-10.363.004zm9.392-2.368c.204 0 .261-.094.204-.253l-4.146-10.867c-.047-.149-.102-.392-.203-.392-.139 0-.184.243-.239.392l-4.249 10.829c-.102.197 0 .291.147.291h8.486zM224.098 16.422c0-6.491 0-7.695-.046-9.057-.102-1.454-.507-1.903-1.907-2.313-.353-.102-1.098-.148-1.752-.148-.442 0-.755-.149-.755-.448 0-.309.367-.411 1.014-.411 2.303 0 5.086.102 5.99.102 1.502 0 5.493-.102 6.848-.102 2.793 0 6.001.252 8.344 1.811 1.253.857 3.097 3.022 3.097 5.894 0 3.17-1.81 5.986-6.103 9.459 3.907 4.818 7.004 8.691 9.651 11.359 2.449 2.461 3.99 2.669 4.7 2.818.451.103.709.103 1.041.103.36 0 .553.25.553.446 0 .357-.304.46-.838.46h-4.213c-2.444 0-3.644-.252-4.792-.856-1.89-.961-3.55-2.969-5.99-6.276-1.752-2.323-3.605-5.188-4.157-5.84-.248-.251-.508-.297-.794-.297l-3.952-.113c-.204 0-.352.113-.352.356v.604c0 3.973.072 7.29.26 9.114.158 1.249.351 2.051 1.695 2.255.646.093 1.604.149 2.151.149.341 0 .553.251.553.447 0 .311-.351.458-.896.458-2.561 0-6.193-.147-6.849-.147-.857 0-3.64.147-5.409.147-.534 0-.829-.147-.829-.458 0-.196.147-.447.691-.447.647 0 1.15-.057 1.538-.149.902-.205 1.162-1.006 1.31-2.255.204-1.819.204-5.188.204-9.114v-7.548h-.007v-.003zm5.585 3.318c0 .46.101.601.406.755.939.3 2.25.402 3.355.402 1.753 0 2.343-.147 3.097-.707 1.344-.961 2.838-2.807 2.838-6.333 0-6.034-4.102-7.593-6.691-7.593-1.097 0-2.156.046-2.59.141-.314.102-.413.252-.413.605l-.002 12.73zM263.304 6.659l-6.544.156c-2.542.048-3.595.345-4.236 1.307a4.604 4.604 0 0 0-.755 1.466c-.093.333-.203.541-.498.541-.306 0-.408-.252-.408-.706 0-.694.865-4.816.958-5.177.102-.553.249-.796.499-.796.352 0 .795.336 1.9.495 1.307.149 2.949.206 4.403.206h17.834c1.392 0 2.348-.102 2.996-.206.701-.104 1.05-.196 1.206-.196.286 0 .342.243.342.896 0 .914-.101 4.086-.101 5.187-.047.459-.147.709-.397.709-.353 0-.443-.208-.509-.859l-.046-.447c-.102-1.119-1.241-2.423-5.198-2.461l-5.541-.111v17.303c0 3.935.045 7.292.238 9.158.161 1.204.409 2.013 1.708 2.211.6.102 1.604.149 2.249.149.498 0 .702.251.702.456 0 .299-.352.449-.847.449-2.903 0-5.841-.15-7.104-.15-.988 0-3.994.15-5.734.15-.562 0-.857-.15-.857-.449 0-.205.147-.456.702-.456.652 0 1.205-.048 1.55-.149.899-.198 1.147-1.007 1.295-2.258.195-1.819.195-5.177.195-9.111l-.002-17.307z"/></g></svg>
