<?xml version="1.0" encoding="utf-8"?>
<!-- Generator: Adobe Illustrator 15.0.2, SVG Export Plug-In  -->
<!DOCTYPE svg PUBLIC "-//W3C//DTD SVG 1.1//EN" "http://www.w3.org/Graphics/SVG/1.1/DTD/svg11.dtd" [
	<!ENTITY ns_flows "http://ns.adobe.com/Flows/1.0/">
]>
<svg version="1.1"
	 xmlns="http://www.w3.org/2000/svg" xmlns:xlink="http://www.w3.org/1999/xlink" xmlns:a="http://ns.adobe.com/AdobeSVGViewerExtensions/3.0/"
	 x="0px" y="0px" width="709px" height="139px" viewBox="98.667 86 709 139"
	 overflow="visible" enable-background="new 98.667 86 709 139" xml:space="preserve">
<defs>
</defs>
<g>
	<defs>
		<rect id="SVGID_1_" width="903.333" height="334"/>
	</defs>
	<clipPath id="SVGID_2_">
		<use xlink:href="#SVGID_1_"  overflow="visible"/>
	</clipPath>
	<g clip-path="url(#SVGID_2_)">
		<path fill="#EF7D00" d="M403.272,176.475l3.26,0.424l-1.923,33.682c-12.266,7.317-27.081,11.546-47.741,11.13
			c-44.082-0.887-68.356-26.533-68.356-63.494c0-42.272,28.744-68.621,69.362-68.621c19.905,0,35.903,4.361,47.248,11.443
			l0.021,34.151l-3.41,0.084c-6.159-18.988-20.68-37.424-35.092-37.424c-24.222,0-29.967,35.072-29.967,57.869
			c0,29.929,9.546,56.474,32.674,56.474C382.951,212.192,397.247,199.503,403.272,176.475"/>
		<path fill="#EF7D00" d="M678.649,218.482l-0.547-48.378l0.097-34.276c0-9.413,1.229-10.947,7.456-14.917v-2.4H642.79l0.334,50.485
			l-0.317,32.257c0,9.415-2.114,11.342-7.706,14.921v2.309H678.649z"/>
		<path fill="#EF7D00" d="M522.626,206.885c-3.386-4.869-7.668-11.753-10.352-16.942c-5.739-11.098-13.036-17.799-28.579-18.508
			c18.229-0.649,32.797-9.742,32.797-25.858c0-18.463-15.399-27.298-37.362-27.298h-57.303l0.204,50.036l-0.358,32.938
			c0,9.415-2.114,11.342-7.706,14.921v2.309h43.103l-0.268-44.405h3.221c9.409,0,12.307,2.374,14.258,9.19l5.887,19.894
			c1.854,5.979,4.084,11.037,7.619,15.321h44.17v-2.506C528.679,213.702,525.294,210.727,522.626,206.885 M462.303,167.342h-5.501
			l-0.129-42.72h5.63c12.265,0,18.723,7.646,18.723,20.766C481.025,158.508,474.567,167.342,462.303,167.342"/>
		<path fill="#EF7D00" d="M629.31,166.532c0,33.788-22.791,55.088-52.732,55.088c-32.325,0-50.201-23.651-50.201-50.976
			c0-33.79,22.792-55.09,52.585-55.09C611.286,115.555,629.31,139.206,629.31,166.532 M594.419,170.45
			c0-27.603-5.359-47.68-17.305-47.68c-10.504,0-14.83,19.29-14.83,43.601c0,27.605,5.354,47.68,17.3,47.68
			C590.091,214.052,594.419,194.76,594.419,170.45"/>
		<path fill="#EF7D00" d="M269.318,202.86c-7.906-13.891-43.439-86.126-43.439-86.126l-2.493-0.004c0,0-36.989,77.496-39.529,82.755
			c-0.885,1.834-2.613,4.543-4.586,6.258c-3.702,3.219-9.621,5.741-18.899,5.741h-12.081v-42.421l0.358-33.688
			c0-9.416,2.114-11.34,7.705-14.921v-1.944h-43.999c0,0,0.233,78.667,0.233,83.68c0,9.434-3.662,11.346-7.782,13.983v2.309h79.186
			l12.783-27.228h29.118l13.593,27.228h41.918v-2.339C277.005,213.046,273.367,209.974,269.318,202.86 M222.894,185.014h-24.192
			l12.114-25.774L222.894,185.014z"/>
		<path fill="#EF7D00" d="M785.301,200.5c-11.371-17.298-20.011-31.367-25.938-41.184c5.932-8.103,14.682-19.306,19.636-24.741
			c7.135-7.824,16.27-11.965,20.604-13.509v-2.556h-23.389c-1.085,3.324-2.874,7.982-7.738,15.388
			c-1.748,2.661-8.73,12.421-13.299,18.52l-20.203-33.908h-43.361v2.401c4.834,2.235,10.292,7.109,14.461,13.616
			c5.389,8.416,12.875,20.626,24.465,39.757c-3.714,5.07-13.689,18.411-20.714,26.99c-7.83,9.566-18.405,13.15-23.546,14.533v2.675
			h28.414c0.444-3.758,2.832-10.55,5.8-15.55c1.395-2.348,8.575-13.147,14.319-21.652c3.127,4.969,4.323,6.952,6.156,9.902
			c7.584,12.197,16.012,27.3,16.012,27.3h44.881v-2.344C796.558,213.445,790.81,208.88,785.301,200.5"/>
	</g>
</g>
</svg>
