<?xml version="1.0" encoding="UTF-8" standalone="no"?>
<svg
   xmlns:dc="http://purl.org/dc/elements/1.1/"
   xmlns:cc="http://creativecommons.org/ns#"
   xmlns:rdf="http://www.w3.org/1999/02/22-rdf-syntax-ns#"
   xmlns:svg="http://www.w3.org/2000/svg"
   xmlns="http://www.w3.org/2000/svg"
   xmlns:sodipodi="http://sodipodi.sourceforge.net/DTD/sodipodi-0.dtd"
   xmlns:inkscape="http://www.inkscape.org/namespaces/inkscape"
   version="1.1"
   x="0px"
   y="0px"
   viewBox="0 0 256 256"
   enable-background="new 0 0 100 100"
   xml:space="preserve"
   id="svg2"
   inkscape:version="0.91 r13725"
   sodipodi:docname="hedgenews_logo.svg"
   width="256"
   height="256"><metadata
     id="metadata152"><rdf:RDF><cc:Work
         rdf:about=""><dc:format>image/svg+xml</dc:format><dc:type
           rdf:resource="http://purl.org/dc/dcmitype/StillImage" /><dc:title></dc:title></cc:Work></rdf:RDF></metadata><defs
     id="defs150" /><sodipodi:namedview
     pagecolor="#ffffff"
     bordercolor="#666666"
     borderopacity="1"
     objecttolerance="10"
     gridtolerance="10"
     guidetolerance="10"
     inkscape:pageopacity="0"
     inkscape:pageshadow="2"
     inkscape:window-width="1920"
     inkscape:window-height="1026"
     id="namedview148"
     showgrid="false"
     inkscape:zoom="1.888"
     inkscape:cx="91.779588"
     inkscape:cy="79.965739"
     inkscape:window-x="0"
     inkscape:window-y="0"
     inkscape:window-maximized="1"
     inkscape:current-layer="svg2" /><g
     id="g4"
     transform="matrix(3.0871021,0,0,3.0871021,-31.187134,-48.158387)"><g
       id="g6"><path
         d="m 24.87598,68.8125 c 0.51367,0 0.95117,-0.39355 0.99512,-0.91504 0.04688,-0.55029 -0.36035,-1.03418 -0.91113,-1.08154 l -5.125,-0.4375 c -0.5625,-0.05371 -1.03418,0.36133 -1.08105,0.91162 -0.04687,0.55029 0.36035,1.03418 0.91113,1.08154 l 5.125,0.4375 c 0.02929,0.0024 0.05761,0.0034 0.08593,0.0034 z"
         id="path8"
         inkscape:connector-curvature="0" /><path
         d="m 22.00098,65.75 c 0.50781,0 0.94238,-0.38477 0.99414,-0.90039 0.05469,-0.5498 -0.3457,-1.03955 -0.89551,-1.09473 l -5,-0.5 c -0.55078,-0.05371 -1.04004,0.34668 -1.09473,0.89551 -0.05469,0.5498 0.3457,1.03955 0.89551,1.09473 l 5,0.5 c 0.03418,0.0034 0.06738,0.0049 0.10059,0.0049 z"
         id="path10"
         inkscape:connector-curvature="0" /><path
         d="m 17.21289,59.27295 c -0.54297,-0.11621 -1.07227,0.2251 -1.19043,0.76465 -0.11719,0.53955 0.22559,1.07227 0.76465,1.18945 l 2.875,0.625 c 0.07227,0.01562 0.14355,0.02295 0.21387,0.02295 0.45996,0 0.87402,-0.31934 0.97656,-0.7876 0.11719,-0.53955 -0.22559,-1.07227 -0.76465,-1.18945 l -2.875,-0.625 z"
         id="path12"
         inkscape:connector-curvature="0" /><path
         d="M 22.13672,58.97119 C 22.2168,58.99072 22.29688,59 22.37598,59 c 0.4502,0 0.8584,-0.30566 0.9707,-0.76221 0.13086,-0.53613 -0.19727,-1.07764 -0.7334,-1.20898 l -6.125,-1.5 c -0.53711,-0.13281 -1.07812,0.19678 -1.20996,0.7334 -0.13086,0.53613 0.19727,1.07764 0.7334,1.20898 l 6.125,1.5 z"
         id="path14"
         inkscape:connector-curvature="0" /><path
         d="m 16.2793,53.31348 2.375,0.875 c 0.11426,0.04199 0.23047,0.06201 0.3457,0.06201 0.40723,0 0.78906,-0.25049 0.93848,-0.65479 0.19043,-0.51807 -0.07422,-1.09326 -0.59277,-1.28418 l -2.375,-0.875 c -0.5166,-0.19043 -1.0918,0.07422 -1.28418,0.59277 -0.19044,0.51807 0.07421,1.09327 0.59277,1.28419 z"
         id="path16"
         inkscape:connector-curvature="0" /><path
         d="m 17.91602,49.56738 3.875,1.375 c 0.11035,0.03906 0.22266,0.05811 0.33398,0.05811 0.41113,0 0.79688,-0.25635 0.94238,-0.66602 0.18457,-0.52051 -0.08789,-1.09229 -0.6084,-1.27686 l -3.875,-1.375 c -0.51953,-0.18408 -1.0918,0.08691 -1.27637,0.60791 -0.18456,0.52052 0.0879,1.09229 0.60841,1.27686 z"
         id="path18"
         inkscape:connector-curvature="0" /><path
         d="m 22.00488,47.40967 c 0.18359,0.14502 0.40234,0.21533 0.61914,0.21533 0.2959,0 0.58887,-0.13037 0.78613,-0.38037 0.3418,-0.43359 0.26758,-1.0625 -0.16504,-1.4043 l -2.375,-1.875 c -0.43359,-0.34229 -1.06348,-0.26758 -1.40527,0.16504 -0.3418,0.43359 -0.26758,1.0625 0.16504,1.4043 l 2.375,1.875 z"
         id="path20"
         inkscape:connector-curvature="0" /><path
         d="m 26.98926,47.39697 c 0.18652,0.15332 0.41113,0.22803 0.63477,0.22803 0.28906,0 0.5752,-0.12402 0.77246,-0.36426 0.35156,-0.42627 0.29102,-1.05664 -0.13574,-1.40771 l -4.25,-3.5 c -0.42773,-0.35156 -1.05664,-0.29004 -1.40723,0.13623 -0.35156,0.42627 -0.29102,1.05664 0.13574,1.40771 l 4.25,3.5 z"
         id="path22"
         inkscape:connector-curvature="0" /><path
         d="m 21.12793,53.29688 c -0.04297,0.55029 0.36816,1.03174 0.91895,1.0752 l 6.375,0.5 c 0.02637,0.002 0.05273,0.0029 0.0791,0.0029 0.5166,0 0.95508,-0.39795 0.99609,-0.92188 0.04297,-0.55029 -0.36816,-1.03174 -0.91895,-1.0752 l -6.375,-0.5 c -0.54199,-0.04053 -1.03222,0.36865 -1.07519,0.91895 z"
         id="path24"
         inkscape:connector-curvature="0" /><path
         d="m 28.22266,56.51172 -3.25,0.5 c -0.5459,0.08398 -0.91992,0.59424 -0.83594,1.14014 C 24.21289,58.64648 24.63867,59 25.12402,59 c 0.0498,0 0.10156,-0.0039 0.15332,-0.01172 l 3.25,-0.5 c 0.5459,-0.08398 0.91992,-0.59424 0.83594,-1.14014 -0.08398,-0.5459 -0.58789,-0.92138 -1.14062,-0.83642 z"
         id="path26"
         inkscape:connector-curvature="0" /><path
         d="m 24.49902,62.625 c 0.06641,0 0.13379,-0.0063 0.20117,-0.02051 l 5.5,-1.125 c 0.54102,-0.11035 0.89062,-0.63867 0.7793,-1.17969 -0.11035,-0.5415 -0.63965,-0.89355 -1.17969,-0.7793 l -5.5,1.125 c -0.54102,0.11035 -0.89062,0.63867 -0.7793,1.17969 0.09669,0.47364 0.51368,0.79981 0.97852,0.79981 z"
         id="path28"
         inkscape:connector-curvature="0" /><path
         d="m 25.49902,65.875 c 0.03809,0 0.07715,-0.0019 0.11523,-0.0063 l 3.25,-0.375 c 0.54883,-0.06348 0.94238,-0.55957 0.87891,-1.1084 -0.0625,-0.54834 -0.56934,-0.94189 -1.10742,-0.87891 l -3.25,0.375 c -0.54883,0.06348 -0.94238,0.55957 -0.87891,1.1084 0.0586,0.50977 0.49122,0.88526 0.99219,0.88526 z"
         id="path30"
         inkscape:connector-curvature="0" /><path
         d="m 28.05957,70.52051 c -0.19531,-0.51709 -0.77539,-0.77588 -1.28906,-0.58057 l -3.625,1.375 c -0.5166,0.1958 -0.77637,0.77344 -0.58008,1.28955 0.15137,0.3999 0.53125,0.646 0.93457,0.646 0.11816,0 0.23828,-0.021 0.35449,-0.06543 l 3.625,-1.375 c 0.5166,-0.1958 0.77637,-0.77344 0.58008,-1.28955 z"
         id="path32"
         inkscape:connector-curvature="0" /><path
         d="m 28.49902,68.875 c 0.04785,0 0.09766,-0.0034 0.14648,-0.01074 l 4.25,-0.625 c 0.54688,-0.08008 0.92383,-0.58838 0.84375,-1.13477 -0.08105,-0.5459 -0.58789,-0.92432 -1.13477,-0.84375 l -4.25,0.625 c -0.54688,0.08008 -0.92383,0.58838 -0.84375,1.13477 0.07325,0.49707 0.50001,0.85449 0.98829,0.85449 z"
         id="path34"
         inkscape:connector-curvature="0" /><path
         d="m 33.24023,71.12305 c -0.27637,-0.47754 -0.8877,-0.63965 -1.36719,-0.36279 l -3.875,2.25 c -0.47754,0.27734 -0.64062,0.88916 -0.36328,1.3667 0.18555,0.31982 0.52148,0.49805 0.86621,0.49805 0.16992,0 0.34277,-0.04346 0.50098,-0.13525 l 3.875,-2.25 c 0.47754,-0.27736 0.64063,-0.88917 0.36328,-1.36671 z"
         id="path36"
         inkscape:connector-curvature="0" /><path
         d="m 40.5,69.5 c 0,-0.55225 -0.44727,-1 -1,-1 l -3.625,0 c -0.55273,0 -1,0.44775 -1,1 0,0.55225 0.44727,1 1,1 l 3.625,0 c 0.55273,0 1,-0.44775 1,-1 z"
         id="path38"
         inkscape:connector-curvature="0" /><path
         d="m 38.875,63.75 c 0,-0.55225 -0.44727,-1 -1,-1 l -5.25,0 c -0.55273,0 -1,0.44775 -1,1 0,0.55225 0.44727,1 1,1 l 5.25,0 c 0.55273,0 1,-0.44775 1,-1 z"
         id="path40"
         inkscape:connector-curvature="0" /><path
         d="m 33.25,58.125 c -0.55273,0 -1,0.44775 -1,1 0,0.55225 0.44727,1 1,1 l 2.5,0 c 0.55273,0 1,-0.44775 1,-1 0,-0.55225 -0.44727,-1 -1,-1 l -2.5,0 z"
         id="path42"
         inkscape:connector-curvature="0" /><path
         d="m 37.12598,56.375 c 0.49023,0 0.91797,-0.35986 0.98926,-0.8584 0.07812,-0.54688 -0.30176,-1.05322 -0.84863,-1.13135 l -4.375,-0.625 c -0.54395,-0.07715 -1.05371,0.30225 -1.13184,0.84814 -0.07812,0.54688 0.30176,1.05322 0.84863,1.13135 l 4.375,0.625 c 0.04785,0.0068 0.0957,0.01026 0.14258,0.01026 z"
         id="path44"
         inkscape:connector-curvature="0" /><path
         d="m 25.25977,49.4873 c -0.07617,0.54736 0.30566,1.05225 0.85254,1.12842 l 4.5,0.625 c 0.04688,0.0063 0.09277,0.0093 0.13867,0.0093 0.49121,0 0.91992,-0.3623 0.98926,-0.8623 0.07617,-0.54736 -0.30566,-1.05225 -0.85254,-1.12842 l -4.5,-0.625 c -0.55079,-0.07715 -1.05176,0.30615 -1.12793,0.85302 z"
         id="path46"
         inkscape:connector-curvature="0" /><path
         d="m 34.54395,48.0918 c -0.50195,-0.23047 -1.0957,-0.01172 -1.32715,0.48926 -0.23145,0.50146 -0.0127,1.0957 0.48926,1.32715 l 3.25,1.5 C 37.0918,51.4707 37.23438,51.5 37.37402,51.5 c 0.37793,0 0.74023,-0.21533 0.90918,-0.58105 0.23145,-0.50146 0.0127,-1.0957 -0.48926,-1.32715 l -3.24999,-1.5 z"
         id="path48"
         inkscape:connector-curvature="0" /><path
         d="M 27.29297,43.20703 C 27.48828,43.40234 27.74414,43.5 28,43.5 c 0.25586,0 0.51172,-0.09766 0.70703,-0.29297 0.39062,-0.39062 0.39062,-1.02344 0,-1.41406 l -2.25,-2.25 c -0.39062,-0.39062 -1.02344,-0.39062 -1.41406,0 -0.39062,0.39062 -0.39062,1.02344 0,1.41406 l 2.25,2.25 z"
         id="path50"
         inkscape:connector-curvature="0" /><path
         d="m 35.04883,45.01514 -4.25,-0.75 c -0.5459,-0.09717 -1.06348,0.26709 -1.1582,0.81104 -0.09668,0.54395 0.2666,1.0625 0.81055,1.15869 l 4.25,0.75 C 34.75977,46.99512 34.81836,47 34.87598,47 c 0.47656,0 0.89844,-0.34131 0.9834,-0.82617 0.09667,-0.54395 -0.26661,-1.0625 -0.81055,-1.15869 z"
         id="path52"
         inkscape:connector-curvature="0" /><path
         d="m 28.97266,40.09961 3.625,2.25 c 0.16406,0.10205 0.34668,0.15039 0.52636,0.15039 0.33398,0 0.66113,-0.16748 0.85059,-0.47266 0.29102,-0.46924 0.14746,-1.08594 -0.32227,-1.37695 l -3.625,-2.25 c -0.46875,-0.29199 -1.08594,-0.14697 -1.37695,0.32227 -0.29101,0.46924 -0.14746,1.08593 0.32227,1.37695 z"
         id="path54"
         inkscape:connector-curvature="0" /><path
         d="m 36.03711,42.85449 c -0.14941,0.53125 0.16016,1.0835 0.69238,1.2334 l 4,1.125 c 0.08984,0.02539 0.18164,0.0376 0.27148,0.0376 0.43652,0 0.83789,-0.28857 0.96191,-0.72998 0.14941,-0.53125 -0.16016,-1.0835 -0.69238,-1.2334 l -4,-1.125 c -0.52343,-0.14697 -1.08398,0.16016 -1.23339,0.69238 z"
         id="path56"
         inkscape:connector-curvature="0" /><path
         d="m 37.14355,40.17041 c 0.18164,0.13818 0.39453,0.20459 0.60547,0.20459 0.30176,0 0.59961,-0.13574 0.79688,-0.39404 0.33398,-0.43945 0.24902,-1.06689 -0.18945,-1.40137 l -2.625,-2 c -0.44238,-0.33545 -1.06738,-0.24902 -1.40234,0.18945 -0.33398,0.43945 -0.24902,1.06689 0.18945,1.40137 l 2.62499,2 z"
         id="path58"
         inkscape:connector-curvature="0" /><path
         d="m 42.70215,47.14551 -3.625,-0.75 c -0.53906,-0.11084 -1.07031,0.23486 -1.18164,0.77686 -0.11133,0.54102 0.23633,1.06982 0.77734,1.18213 l 3.625,0.75 c 0.06836,0.01367 0.13574,0.02051 0.20312,0.02051 0.46387,0 0.88086,-0.32471 0.97852,-0.79736 0.11133,-0.54103 -0.23633,-1.06984 -0.77734,-1.18214 z"
         id="path60"
         inkscape:connector-curvature="0" /><path
         d="m 42.42383,52.51514 -2.125,-0.375 c -0.54395,-0.09521 -1.0625,0.26758 -1.1582,0.81104 -0.09668,0.54395 0.2666,1.0625 0.81055,1.15869 l 2.125,0.375 c 0.05859,0.01025 0.11718,0.01513 0.1748,0.01513 0.47656,0 0.89844,-0.34131 0.9834,-0.82617 0.09667,-0.54395 -0.26661,-1.0625 -0.81055,-1.15869 z"
         id="path62"
         inkscape:connector-curvature="0" /><path
         d="m 42.11914,59.36768 c 0.54883,-0.06543 0.93945,-0.56348 0.87402,-1.11182 -0.06641,-0.54736 -0.5625,-0.93652 -1.1123,-0.87354 l -3.125,0.375 c -0.54883,0.06543 -0.93945,0.56348 -0.87402,1.11182 0.06152,0.50781 0.49316,0.88086 0.99218,0.88086 0.03906,0 0.08008,-0.0024 0.12012,-0.0073 l 3.125,-0.375 z"
         id="path64"
         inkscape:connector-curvature="0" /><path
         d="m 43.99023,60.78418 -3.25,0.875 c -0.5332,0.14355 -0.84961,0.69238 -0.70605,1.22559 0.12012,0.44629 0.52441,0.74072 0.96484,0.74072 0.08594,0 0.17383,-0.01123 0.26074,-0.03467 l 3.25,-0.875 c 0.5332,-0.14355 0.84961,-0.69238 0.70605,-1.22559 -0.14354,-0.53369 -0.69433,-0.85156 -1.22558,-0.70605 z"
         id="path66"
         inkscape:connector-curvature="0" /><path
         d="m 43.48633,66.21045 c -0.08984,-0.54443 -0.60742,-0.91162 -1.15039,-0.82178 l -2.25,0.375 c -0.54492,0.09082 -0.91309,0.60596 -0.82227,1.15088 0.08105,0.48877 0.50488,0.83545 0.98535,0.83545 0.05469,0 0.10938,-0.0044 0.16504,-0.01367 l 2.25,-0.375 c 0.54492,-0.09082 0.91309,-0.60596 0.82227,-1.15088 z"
         id="path68"
         inkscape:connector-curvature="0" /><path
         d="m 39.81738,71.97363 -3.125,1.5 c -0.49805,0.23877 -0.70801,0.83643 -0.46875,1.33398 0.17188,0.3584 0.5293,0.56738 0.90234,0.56738 0.14453,0 0.29199,-0.03174 0.43164,-0.09863 l 3.125,-1.5 c 0.49805,-0.23877 0.70801,-0.83643 0.46875,-1.33398 -0.23827,-0.49756 -0.83495,-0.70849 -1.33398,-0.46875 z"
         id="path70"
         inkscape:connector-curvature="0" /><path
         d="m 35.03418,75.79102 -3.375,-1 c -0.53125,-0.15527 -1.08594,0.146 -1.24316,0.6748 -0.15625,0.52979 0.14551,1.08594 0.6748,1.24316 l 3.375,1 c 0.09473,0.02783 0.19043,0.0415 0.28418,0.0415 0.43164,0 0.83008,-0.28174 0.95898,-0.71631 0.15625,-0.52978 -0.1455,-1.08593 -0.6748,-1.24315 z"
         id="path72"
         inkscape:connector-curvature="0" /><path
         d="m 45.9873,72.82812 -2.375,1 c -0.50977,0.21436 -0.74805,0.80078 -0.53418,1.31006 0.16113,0.38232 0.53223,0.6123 0.92188,0.6123 0.12988,0 0.26172,-0.02539 0.3877,-0.07861 l 2.375,-1 c 0.50977,-0.21436 0.74805,-0.80078 0.53418,-1.31006 -0.21485,-0.50976 -0.80469,-0.74658 -1.30958,-0.53369 z"
         id="path74"
         inkscape:connector-curvature="0" /><path
         d="m 43.87402,71 c 0.07227,0 0.14453,-0.0078 0.21777,-0.02393 l 2.25,-0.5 c 0.53906,-0.11963 0.87891,-0.65381 0.75977,-1.19287 -0.12012,-0.54004 -0.65527,-0.87744 -1.19336,-0.75928 l -2.25,0.5 c -0.53906,0.11963 -0.87891,0.65381 -0.75977,1.19287 C 43.00195,70.68311 43.41602,71 43.87402,71 Z"
         id="path76"
         inkscape:connector-curvature="0" /><path
         d="m 51.83203,71.78564 -2.125,1.375 c -0.46387,0.2998 -0.59668,0.91895 -0.29688,1.38281 C 49.60156,74.83887 49.92285,75 50.25098,75 50.4375,75 50.625,74.94824 50.79297,74.83936 l 2.125,-1.375 c 0.46387,-0.2998 0.59668,-0.91895 0.29688,-1.38281 -0.29981,-0.46339 -0.91895,-0.59669 -1.38282,-0.29591 z"
         id="path78"
         inkscape:connector-curvature="0" /><path
         d="m 52.52539,67.62988 -2.5,0.25 c -0.5498,0.05518 -0.9502,0.54492 -0.89551,1.09473 0.05176,0.51562 0.48633,0.90039 0.99414,0.90039 0.0332,0 0.06641,-0.0015 0.10059,-0.0049 l 2.5,-0.25 c 0.5498,-0.05518 0.9502,-0.54492 0.89551,-1.09473 -0.05469,-0.54932 -0.53614,-0.94727 -1.09473,-0.89551 z"
         id="path80"
         inkscape:connector-curvature="0" /><path
         d="m 46.50977,63.75684 c -0.54883,0.06348 -0.94141,0.56006 -0.87793,1.10889 0.05957,0.50927 0.49121,0.88427 0.99218,0.88427 0.03809,0 0.07715,-0.0019 0.11621,-0.0068 l 5.375,-0.625 c 0.54883,-0.06348 0.94141,-0.56006 0.87793,-1.10889 -0.06445,-0.54785 -0.55664,-0.9458 -1.1084,-0.87744 l -5.37499,0.62501 z"
         id="path82"
         inkscape:connector-curvature="0" /><path
         d="m 46.19336,59.62354 4.375,0.25 c 0.01855,9.8e-4 0.03809,0.0015 0.05762,0.0015 0.52637,0 0.9668,-0.41113 0.99707,-0.94287 0.03223,-0.55127 -0.38965,-1.02393 -0.94141,-1.05566 l -4.375,-0.25 c -0.52148,-0.02393 -1.02344,0.38965 -1.05469,0.94141 -0.03222,0.55126 0.38965,1.02392 0.94141,1.05566 z"
         id="path84"
         inkscape:connector-curvature="0" /><path
         d="m 46.625,53.625 c -0.55273,0 -1,0.44775 -1,1 0,0.55225 0.44727,1 1,1 l 2.75,0 c 0.55273,0 1,-0.44775 1,-1 0,-0.55225 -0.44727,-1 -1,-1 l -2.75,0 z"
         id="path86"
         inkscape:connector-curvature="0" /><path
         d="m 51.57617,50.14551 -4.25,-0.875 c -0.53711,-0.11426 -1.06934,0.23779 -1.18066,0.77783 -0.11133,0.54102 0.2373,1.06982 0.77832,1.18115 l 4.25,0.875 c 0.06738,0.01416 0.13574,0.02051 0.20215,0.02051 0.46484,0 0.88086,-0.32568 0.97852,-0.79834 0.11132,-0.54102 -0.23731,-1.06982 -0.77833,-1.18115 z"
         id="path88"
         inkscape:connector-curvature="0" /><path
         d="m 45.94922,46.45361 2.375,0.75 c 0.09961,0.03174 0.20117,0.04688 0.30078,0.04688 0.4248,0 0.81934,-0.27295 0.95312,-0.69922 0.16699,-0.52686 -0.125,-1.08838 -0.65234,-1.25488 l -2.375,-0.75 c -0.52441,-0.1665 -1.08887,0.12646 -1.25391,0.65234 -0.16699,0.52686 0.12501,1.08838 0.65235,1.25488 z"
         id="path90"
         inkscape:connector-curvature="0" /><path
         d="m 42.87598,41.73584 c 0.18262,0.32861 0.52344,0.51416 0.875,0.51416 0.16406,0 0.33105,-0.04053 0.48438,-0.12598 0.4834,-0.26807 0.65723,-0.87695 0.38867,-1.35986 l -1.25,-2.25 c -0.26758,-0.48242 -0.87793,-0.65723 -1.35938,-0.38818 -0.4834,0.26807 -0.65723,0.87695 -0.38867,1.35986 l 1.25,2.25 z"
         id="path92"
         inkscape:connector-curvature="0" /><path
         d="m 48.71484,42.11963 c 0.19727,0.25 0.49023,0.38037 0.78613,0.38037 0.2168,0 0.43555,-0.07031 0.61914,-0.21533 0.43262,-0.3418 0.50684,-0.9707 0.16504,-1.4043 l -1.875,-2.375 c -0.34082,-0.43311 -0.9707,-0.50781 -1.40527,-0.16504 -0.43262,0.3418 -0.50684,0.9707 -0.16504,1.4043 l 1.875,2.375 z"
         id="path94"
         inkscape:connector-curvature="0" /><path
         d="m 56.16016,43.18262 c 0.17773,0.12988 0.38477,0.19238 0.58887,0.19238 0.30859,0 0.6123,-0.14209 0.80859,-0.41016 0.3252,-0.4458 0.22852,-1.07129 -0.21777,-1.39746 l -3.25,-2.375 c -0.44629,-0.32568 -1.07129,-0.22754 -1.39746,0.21777 -0.3252,0.4458 -0.22852,1.07129 0.21777,1.39746 l 3.25,2.37501 z"
         id="path96"
         inkscape:connector-curvature="0" /><path
         d="m 52.28711,46.35205 2.875,0.625 C 55.23438,46.99268 55.30566,47 55.37598,47 c 0.45996,0 0.87402,-0.31934 0.97656,-0.7876 0.11719,-0.53955 -0.22559,-1.07227 -0.76465,-1.18945 l -2.875,-0.625 c -0.54492,-0.11816 -1.07227,0.22461 -1.19043,0.76465 -0.11719,0.53955 0.22559,1.07226 0.76465,1.18945 z"
         id="path98"
         inkscape:connector-curvature="0" /><path
         d="m 55.1377,49.09424 c -0.08691,0.54541 0.28613,1.05762 0.83105,1.14355 l 2.375,0.375 c 0.05273,0.0083 0.10547,0.01221 0.15723,0.01221 0.4834,0 0.90918,-0.35156 0.98633,-0.84424 0.08691,-0.54541 -0.28613,-1.05762 -0.83105,-1.14355 l -2.375,-0.375 c -0.54396,-0.08252 -1.05763,0.28662 -1.14356,0.83203 z"
         id="path100"
         inkscape:connector-curvature="0" /><path
         d="m 57.6123,53.3418 c -0.08691,-0.54443 -0.58887,-0.92236 -1.14551,-0.8291 l -3.125,0.5 c -0.54492,0.08691 -0.91602,0.6001 -0.8291,1.14551 C 52.59082,54.6499 53.01562,55 53.49902,55 c 0.05176,0 0.10547,-0.0039 0.15918,-0.0127 l 3.125,-0.5 c 0.54492,-0.08691 0.91602,-0.60009 0.8291,-1.1455 z"
         id="path102"
         inkscape:connector-curvature="0" /><path
         d="m 55.0166,59.23975 1.75,-0.25 c 0.54688,-0.07812 0.92676,-0.58447 0.84863,-1.13135 -0.07812,-0.54639 -0.58691,-0.92871 -1.13184,-0.84814 l -1.75,0.25 c -0.54688,0.07812 -0.92676,0.58447 -0.84863,1.13135 0.07129,0.49854 0.49902,0.8584 0.98926,0.8584 0.04688,-1e-5 0.09473,-0.0034 0.14258,-0.01026 z"
         id="path104"
         inkscape:connector-curvature="0" /><path
         d="m 56.35938,64.16748 3.25,-2.5 c 0.43848,-0.33643 0.51953,-0.96436 0.18359,-1.40234 -0.33789,-0.43799 -0.96484,-0.52051 -1.40234,-0.18262 l -3.25,2.5 c -0.43848,0.33643 -0.51953,0.96436 -0.18359,1.40234 0.19727,0.25586 0.49414,0.39014 0.79395,0.39014 0.21288,0 0.42674,-0.06738 0.60839,-0.20752 z"
         id="path106"
         inkscape:connector-curvature="0" /><path
         d="m 56.94727,68.39453 2.5,-1.25 c 0.49414,-0.24707 0.69434,-0.84766 0.44727,-1.3418 -0.24805,-0.49463 -0.84863,-0.69482 -1.3418,-0.44727 l -2.5,1.25 c -0.49414,0.24707 -0.69434,0.84766 -0.44727,1.3418 0.17578,0.35059 0.52832,0.55274 0.89551,0.55274 0.15039,0 0.30273,-0.03369 0.44629,-0.10547 z"
         id="path108"
         inkscape:connector-curvature="0" /><path
         d="m 64.38965,74.76758 c -1.3916,-0.83496 -5.41602,-1.09717 -6.20898,-1.14111 -0.57812,-0.04053 -1.02344,0.3916 -1.05371,0.94287 -0.03125,0.55176 0.3916,1.02344 0.94238,1.0542 1.7666,0.09814 4.5752,0.4292 5.29102,0.85889 0.16113,0.09668 0.33887,0.14258 0.51367,0.14258 0.33984,0 0.6709,-0.17285 0.8584,-0.48535 0.28417,-0.47364 0.13085,-1.0879 -0.34278,-1.37208 z"
         id="path110"
         inkscape:connector-curvature="0" /><path
         d="m 59.91016,70.78711 c 0.50391,-0.22705 0.72852,-0.81885 0.50195,-1.32227 -0.22754,-0.50391 -0.81836,-0.729 -1.32227,-0.50195 l -2.5,1.125 c -0.50391,0.22705 -0.72852,0.81885 -0.50195,1.32227 0.16699,0.37061 0.53125,0.59033 0.91309,0.59033 0.13672,0 0.27637,-0.02881 0.40918,-0.08838 l 2.5,-1.125 z"
         id="path112"
         inkscape:connector-curvature="0" /><path
         d="m 87.86523,68.8584 c -0.125,-0.87012 -0.98145,-1.46533 -1.97461,-2.15381 -0.50195,-0.34814 -1.3418,-0.93066 -1.47656,-1.23584 -0.07227,-0.16211 -0.19629,-0.4043 -0.35645,-0.71387 -0.93457,-1.80518 -3.12207,-6.03223 -2.3291,-9.79883 0.11426,-0.54053 -0.23242,-1.0708 -0.77246,-1.18457 -0.53809,-0.11475 -1.07129,0.23193 -1.18457,0.77246 -0.93945,4.46436 1.47754,9.13525 2.50977,11.12988 0.13574,0.26367 0.24316,0.46924 0.30469,0.60742 0.36328,0.81641 1.2793,1.45166 2.16504,2.06641 0.2998,0.2085 0.71094,0.49365 0.96484,0.71143 C 85.3457,69.26855 84.61523,69.5 84,69.5 c -0.74512,0 -4.77637,-0.75049 -7.15723,-1.22656 -1.37305,-0.31836 -6.61133,0.63525 -9.66406,1.24609 -0.54102,0.1084 -0.89258,0.63525 -0.78418,1.17676 0.09473,0.4751 0.5127,0.80371 0.97949,0.80371 0.06445,0 0.13086,-0.0063 0.19727,-0.01953 3.64062,-0.72754 8.0332,-1.41943 8.7373,-1.28174 0.03906,0.01318 0.08008,0.02393 0.12012,0.03174 C 77.48926,70.44238 82.83496,71.5 84,71.5 c 0.89648,0 2.62207,-0.3501 3.4375,-1.29053 0.34375,-0.39599 0.49512,-0.87597 0.42773,-1.35107 z"
         id="path114"
         inkscape:connector-curvature="0" /><path
         d="m 64.82129,54.25342 c -1.12695,2.81934 0.18066,6.55029 0.2373,6.70801 0.14551,0.40869 0.53028,0.66406 0.94141,0.66406 0.11133,0 0.22559,-0.01904 0.33594,-0.05859 0.52051,-0.18604 0.79199,-0.7583 0.60547,-1.27832 -0.26758,-0.74951 -0.78809,-2.80908 -0.48633,-4.49219 0.79492,0.20605 1.97363,0.60986 2.74414,1.31592 0.4082,0.37305 1.03906,0.34521 1.41309,-0.06152 0.37305,-0.40723 0.3457,-1.03955 -0.06152,-1.41309 -1.70801,-1.56592 -4.54004,-1.98535 -4.65918,-2.00244 -0.45216,-0.06153 -0.89845,0.18945 -1.07032,0.61816 z"
         id="path116"
         inkscape:connector-curvature="0" /><path
         d="m 71.86035,53.14307 c -0.47363,0.28418 -0.62695,0.89795 -0.34277,1.37158 0.20996,0.35059 1.3125,2.12939 2.36133,2.72852 0.15625,0.08936 0.32715,0.13184 0.49512,0.13184 0.34766,0 0.68457,-0.18066 0.86914,-0.50391 0.27441,-0.47949 0.10742,-1.09033 -0.37207,-1.36426 -0.39844,-0.22754 -1.16113,-1.22656 -1.63867,-2.02197 -0.28419,-0.47266 -0.89747,-0.62598 -1.37208,-0.3418 z"
         id="path118"
         inkscape:connector-curvature="0" /><path
         d="m 75.62988,52.84473 c 0.04492,0.47412 0.29883,2.89062 0.87695,3.90137 0.18457,0.32324 0.52148,0.50391 0.86914,0.50391 0.16797,0 0.33887,-0.04248 0.49512,-0.13184 0.47949,-0.27393 0.64648,-0.88477 0.37207,-1.36426 -0.24219,-0.42383 -0.51172,-1.93848 -0.62305,-3.09912 -0.05176,-0.54883 -0.52832,-0.94824 -1.08984,-0.90039 -0.5498,0.05273 -0.95312,0.54052 -0.90039,1.09033 z"
         id="path120"
         inkscape:connector-curvature="0" /><path
         d="m 79.33594,51.86133 c 0.05566,0.0093 0.11035,0.01367 0.16504,0.01367 0.48047,0 0.9043,-0.34668 0.98535,-0.83545 l 0.25,-1.5 c 0.09082,-0.54492 -0.27734,-1.06006 -0.82227,-1.15088 -0.54493,-0.09082 -1.05957,0.27734 -1.15039,0.82178 l -0.25,1.5 c -0.09082,0.54492 0.27735,1.06006 0.82227,1.15088 z"
         id="path122"
         inkscape:connector-curvature="0" /><path
         d="m 72.79297,51.20703 c 0.19141,0.19141 0.4375,0.28564 0.68555,0.28564 0.25,0 0.50098,-0.0957 0.69824,-0.28418 0.39258,-0.37549 0.40039,-1.01025 0.03418,-1.41162 -0.20117,-0.22021 -0.74023,-1.34619 -1.1543,-2.40967 -0.19922,-0.51465 -0.78027,-0.76611 -1.29395,-0.56934 -0.51465,0.20068 -0.76953,0.77979 -0.56934,1.29443 0.28517,0.73537 1.01368,2.50929 1.59962,3.09474 z"
         id="path124"
         inkscape:connector-curvature="0" /><path
         d="m 64.17773,45.39453 c 0.14356,0.07178 0.2959,0.10547 0.44629,0.10547 0.36719,0 0.71973,-0.20215 0.89551,-0.55273 0.24707,-0.49414 0.04688,-1.09473 -0.44727,-1.3418 -0.75684,-0.37842 -2.58789,-1.68799 -3.22949,-2.16064 -0.44238,-0.32666 -1.07031,-0.23291 -1.39746,0.21191 -0.32812,0.44482 -0.2334,1.0708 0.21191,1.39844 0.25001,0.18408 2.47364,1.81591 3.52051,2.33935 z"
         id="path126"
         inkscape:connector-curvature="0" /><path
         d="m 69.28906,50.13916 c 0.25293,0 0.50293,-0.09131 0.69141,-0.27979 0.39062,-0.39062 0.41406,-0.99658 0.02344,-1.38672 -0.22266,-0.33545 -0.64355,-1.97021 -0.89648,-3.28662 -0.10547,-0.54248 -0.63281,-0.90088 -1.1709,-0.79297 -0.54297,0.10449 -0.89746,0.62842 -0.79395,1.1709 0.45312,2.35645 0.9248,3.79248 1.40039,4.26807 0.20215,0.20215 0.47558,0.30713 0.74609,0.30713 z"
         id="path128"
         inkscape:connector-curvature="0" /><path
         d="m 59.76074,47.55615 c 1.13965,0.4458 3.15625,1.19385 3.86426,1.19385 0.53516,0 0.94336,-0.42285 0.9668,-0.95752 0.02441,-0.53467 -0.40918,-0.99463 -0.94238,-1.0415 -0.35352,-0.03125 -1.91992,-0.57178 -3.16016,-1.05713 -0.51172,-0.20068 -1.09277,0.05273 -1.2959,0.56689 -0.20117,0.51416 0.05273,1.09424 0.56738,1.29541 z"
         id="path130"
         inkscape:connector-curvature="0" /><path
         d="m 63.78418,50.74219 c -0.14258,0.53369 0.1748,1.08154 0.70801,1.22412 l 1.875,0.5 c 0.08691,0.02295 0.17285,0.03418 0.25879,0.03418 0.44141,0 0.8457,-0.29541 0.96484,-0.74268 0.14258,-0.53369 -0.1748,-1.08154 -0.70801,-1.22412 l -1.875,-0.5 c -0.5332,-0.13965 -1.08105,0.17432 -1.22363,0.7085 z"
         id="path132"
         inkscape:connector-curvature="0" /><path
         d="m 62.49902,54.75 c 0.33301,0 0.65918,-0.1665 0.84863,-0.47021 0.29297,-0.46826 0.15039,-1.08496 -0.31738,-1.37793 l -2,-1.25 c -0.46973,-0.29297 -1.08594,-0.15088 -1.37793,0.31836 -0.29297,0.46826 -0.15039,1.08496 0.31738,1.37793 l 2,1.25 c 0.16505,0.10302 0.34864,0.15185 0.5293,0.15185 z"
         id="path134"
         inkscape:connector-curvature="0" /><path
         d="m 60.75,58.5 1.25,0 c 0.55273,0 1,-0.44775 1,-1 0,-0.55225 -0.44727,-1 -1,-1 l -1.25,0 c -0.55273,0 -1,0.44775 -1,1 0,0.55225 0.44727,1 1,1 z"
         id="path136"
         inkscape:connector-curvature="0" /><path
         d="m 62.5,65.25 c 1.16309,0 4.4873,0.12207 5.87891,0.67871 0.12109,0.04834 0.24707,0.07178 0.37109,0.07178 0.39648,0 0.77246,-0.23828 0.92871,-0.62891 C 69.88379,64.8584 69.63379,64.27685 69.12109,64.07129 67.125,63.27295 62.96777,63.25 62.5,63.25 c -0.55273,0 -1,0.44775 -1,1 0,0.55225 0.44727,1 1,1 z"
         id="path138"
         inkscape:connector-curvature="0" /><path
         d="m 66.98633,68.16455 c 0.09082,-0.54492 -0.27734,-1.06006 -0.82227,-1.15088 -0.93066,-0.16113 -2.45117,0.43213 -3.05762,0.69238 -0.50781,0.21729 -0.74316,0.80518 -0.52539,1.31299 0.16211,0.37891 0.53125,0.60645 0.91895,0.60645 0.13184,0 0.26562,-0.02637 0.39355,-0.08154 0.75293,-0.32275 1.68066,-0.58447 1.94238,-0.55762 0.54591,0.09179 1.06055,-0.27735 1.1504,-0.82178 z"
         id="path140"
         inkscape:connector-curvature="0" /><circle
         cx="74"
         cy="62.312469"
         r="1.00003"
         id="circle142" /></g></g></svg>