<?xml version="1.0" encoding="UTF-8" standalone="no"?>
<svg
   xmlns:dc="http://purl.org/dc/elements/1.1/"
   xmlns:cc="http://creativecommons.org/ns#"
   xmlns:rdf="http://www.w3.org/1999/02/22-rdf-syntax-ns#"
   xmlns:svg="http://www.w3.org/2000/svg"
   xmlns="http://www.w3.org/2000/svg"
   xmlns:sodipodi="http://sodipodi.sourceforge.net/DTD/sodipodi-0.dtd"
   xmlns:inkscape="http://www.inkscape.org/namespaces/inkscape"
   version="1.1"
   x="0px"
   y="0px"
   viewBox="0 0 256 256"
   enable-background="new 0 0 100 100"
   xml:space="preserve"
   id="svg2"
   inkscape:version="0.91 r13725"
   sodipodi:docname="noun_634638_cc.svg"
   width="256"
   height="256"
   inkscape:export-filename="/home/guillaumecabanel/Desktop/rewind.FF682F.png"
   inkscape:export-xdpi="90"
   inkscape:export-ydpi="90"><metadata
     id="metadata18"><rdf:RDF><cc:Work
         rdf:about=""><dc:format>image/svg+xml</dc:format><dc:type
           rdf:resource="http://purl.org/dc/dcmitype/StillImage" /><dc:title></dc:title></cc:Work></rdf:RDF></metadata><defs
     id="defs16" /><sodipodi:namedview
     pagecolor="#ffffff"
     bordercolor="#666666"
     borderopacity="1"
     objecttolerance="10"
     gridtolerance="10"
     guidetolerance="10"
     inkscape:pageopacity="0"
     inkscape:pageshadow="2"
     inkscape:window-width="1920"
     inkscape:window-height="1026"
     id="namedview14"
     showgrid="false"
     inkscape:zoom="1.888"
     inkscape:cx="-3.2309322"
     inkscape:cy="62.5"
     inkscape:window-x="0"
     inkscape:window-y="0"
     inkscape:window-maximized="1"
     inkscape:current-layer="svg2" /><g
     id="g4"
     transform="matrix(2.7516271,0,0,2.7516271,-9.5734732,-9.581355)"
     style="fill:#ff682f;fill-opacity:1"><path
       d="m 44.862,75.484 2.75,0.003 c 0,0 10e-4,0 10e-4,0 0.451,0 0.878,-0.203 1.163,-0.552 0.285,-0.35 0.398,-0.81 0.306,-1.251 L 44.176,49.965 49.225,26.331 c 0.095,-0.442 -0.016,-0.904 -0.3,-1.256 -0.285,-0.352 -0.712,-0.557 -1.165,-0.558 l -2.833,-0.004 c 0,0 -10e-4,0 -0.002,0 -0.299,0 -0.591,0.089 -0.838,0.256 L 8.628,48.673 c -0.413,0.278 -0.661,0.743 -0.662,1.241 -0.001,0.498 0.245,0.963 0.657,1.243 L 44.02,75.224 c 0.249,0.169 0.542,0.259 0.842,0.26 z m 0.522,-47.97 0.521,0.001 -4.728,22.131 c -0.043,0.204 -0.044,0.414 -0.002,0.617 l 4.596,22.222 -0.445,0 L 12.142,49.922 45.384,27.514 Z"
       id="path6"
       inkscape:connector-curvature="0"
       style="fill:#ff682f;fill-opacity:1" /><path
       d="m 90.531,24.517 -2.833,-0.004 c 0,0 -10e-4,0 -0.002,0 -0.299,0 -0.591,0.089 -0.838,0.256 l -35.46,23.903 c -0.413,0.278 -0.661,0.743 -0.662,1.241 -10e-4,0.498 0.245,0.963 0.657,1.243 L 86.79,75.224 c 0.248,0.169 0.542,0.259 0.842,0.26 l 2.75,0.003 c 0,0 10e-4,0 10e-4,0 0.451,0 0.878,-0.203 1.163,-0.552 0.285,-0.35 0.398,-0.81 0.306,-1.251 L 86.946,49.965 91.995,26.331 c 0.095,-0.442 -0.016,-0.904 -0.3,-1.256 -0.284,-0.352 -0.712,-0.557 -1.164,-0.558 z m -6.584,25.129 c -0.043,0.204 -0.044,0.414 -0.002,0.617 l 4.596,22.222 -0.445,0 -33.184,-22.563 33.242,-22.408 0.521,0.001 -4.728,22.131 z"
       id="path8"
       inkscape:connector-curvature="0"
       style="fill:#ff682f;fill-opacity:1" /></g></svg>